<?xml version="1.0" encoding="utf-8"?>
<!-- Generator: Adobe Illustrator 18.0.0, SVG Export Plug-In . SVG Version: 6.00 Build 0)  -->
<!DOCTYPE svg PUBLIC "-//W3C//DTD SVG 1.1//EN" "http://www.w3.org/Graphics/SVG/1.1/DTD/svg11.dtd">
<svg version="1.1" id="Layer_1" xmlns="http://www.w3.org/2000/svg" xmlns:xlink="http://www.w3.org/1999/xlink" x="0px" y="0px"
	 viewBox="221 306 593 530" enable-background="new 221 306 593 530" xml:space="preserve">
<path fill="#EBE8DC" d="M605.1,429.2c-81.3-58.4-154.2-5.9-154.2-5.9c-106.2,97.5-17.3,190.7-17.3,190.7
	c34.3,32.5,35.1,75.7,34.4,89.4l0,0l0,0c0,0.5-0.1,0.9-0.1,1.3c0.1,1.3,0.9,3.3,4.3,3.5l4.4-0.4l102-24.8c8.3-2.2,6.1-7.2,6.1-7.2
	c-1.1-32.1,30.7-61.2,30.7-61.2C701.2,520.8,605.1,429.2,605.1,429.2z"/>
<path fill="#EBE8DC" stroke="#EBE8DC" stroke-width="11" stroke-miterlimit="10" d="M581.3,708.3l-105.8,23.6
	c-2.7,0.6-4.4,3.3-3.8,6l0,0c0.6,2.7,3.3,4.4,6,3.8L583.5,718c2.7-0.6,4.4-3.3,3.8-6l0,0C586.7,709.4,584,707.7,581.3,708.3z"/>
<path fill="#EBE8DC" stroke="#EBE8DC" stroke-width="11" stroke-miterlimit="10" d="M583.3,744.5l-104.7,23.3
	c-2.7,0.6-4.4,3.3-3.8,6l0,0c0.6,2.7,3.3,4.4,6,3.8l104.7-23.3c2.7-0.6,4.4-3.3,3.8-6l0,0C588.7,745.6,586,743.9,583.3,744.5z"/>
<path fill="#EBE8DC" stroke="#EBE8DC" stroke-width="11" stroke-miterlimit="10" d="M560,783l-53.5,11.9c-2.7,0.6-4.4,3.3-3.8,6l0,0
	c0.6,2.7,3.3,4.4,6,3.8l53.5-11.9c2.7-0.6,4.4-3.3,3.8-6l0,0C565.4,784.1,562.7,782.4,560,783z"/>
<path fill="#EBE8DC" d="M514.7,319.3L514.7,319.3c-3.7,0-6.7,3-6.7,6.7v44c0,3.7,3,6.7,6.7,6.7l0,0c3.7,0,6.7-3,6.7-6.7v-44
	C521.3,322.3,518.3,319.3,514.7,319.3z"/>
<path fill="#EBE8DC" d="M402,355L402,355c-3,2.1-3.8,6.3-1.7,9.3l25,36.2c2.1,3,6.3,3.8,9.3,1.7h0c3-2.1,3.8-6.3,1.7-9.3l-25-36.2
	C409.2,353.7,405,352.9,402,355z"/>
<path fill="#EBE8DC" d="M335.9,439.5L335.9,439.5c-1.5,3.3,0,7.3,3.3,8.8l40,18.2c3.3,1.5,7.3,0,8.8-3.3v0c1.5-3.3,0-7.3-3.3-8.8
	l-40-18.2C341.4,434.6,337.4,436.1,335.9,439.5z"/>
<path fill="#EBE8DC" d="M368.3,536.7L368.3,536.7c0-3.7-3-6.7-6.7-6.7h-44c-3.7,0-6.7,3-6.7,6.7l0,0c0,3.7,3,6.7,6.7,6.7h44
	C365.3,543.3,368.3,540.3,368.3,536.7z"/>
<path fill="#EBE8DC" d="M645.7,344L645.7,344c3,2.1,3.8,6.3,1.7,9.3l-25,36.2c-2.1,3-6.3,3.8-9.3,1.7v0c-3-2.1-3.8-6.3-1.7-9.3
	l25-36.2C638.5,342.7,642.7,341.9,645.7,344z"/>
<path fill="#EBE8DC" d="M711.8,428.4L711.8,428.4c1.5,3.3,0,7.3-3.3,8.8l-40,18.2c-3.3,1.5-7.3,0-8.8-3.3l0,0
	c-1.5-3.3,0-7.3,3.3-8.8l40-18.2C706.3,423.6,710.3,425.1,711.8,428.4z"/>
<path fill="#EBE8DC" d="M679.4,525.6L679.4,525.6c0-3.7,3-6.7,6.7-6.7h44c3.7,0,6.7,3,6.7,6.7l0,0c0,3.7-3,6.7-6.7,6.7h-44
	C682.4,532.3,679.4,529.3,679.4,525.6z"/>
</svg>
