<?xml version="1.0" encoding="utf-8"?>
<!-- Generator: Adobe Illustrator 22.0.1, SVG Export Plug-In . SVG Version: 6.00 Build 0)  -->
<!DOCTYPE svg PUBLIC "-//W3C//DTD SVG 1.1//EN" "http://www.w3.org/Graphics/SVG/1.1/DTD/svg11.dtd">
<svg version="1.1" id="Layer_1" xmlns="http://www.w3.org/2000/svg" xmlns:xlink="http://www.w3.org/1999/xlink" x="0px" y="0px"
	 viewBox="0 0 852 846" style="enable-background:new 0 0 852 846;" xml:space="preserve">
<style type="text/css">
	.st0{fill:#FFFFFF;}
	.st1{fill:#FFFFFF;stroke:#FFFFFF;stroke-width:11;stroke-miterlimit:10;}
	.st2{fill:none;stroke:#FFFFFF;stroke-width:21;stroke-miterlimit:10;}
</style>
<path class="st0" d="M503.4,293.7c-83.9-60.3-159.1-6.1-159.1-6.1c-109.6,100.6-17.9,196.8-17.9,196.8
	c35.4,33.5,36.2,78.1,35.5,92.3l0,0l0,0c0,0.5-0.1,0.9-0.1,1.3c0.1,1.3,0.9,3.4,4.4,3.6l4.5-0.4L476,555.6c8.6-2.3,6.3-7.4,6.3-7.4
	C481.2,515,514,485,514,485C602.6,388.2,503.4,293.7,503.4,293.7z"/>
<path class="st1" d="M478.8,581.7l-109.2,24.4c-2.8,0.6-4.5,3.4-3.9,6.2l0,0c0.6,2.8,3.4,4.5,6.2,3.9l109.2-24.5
	c2.8-0.6,4.5-3.4,3.9-6.2l0,0C484.4,582.8,481.6,581.1,478.8,581.7z"/>
<path class="st1" d="M480.9,619.1l-108.1,24c-2.8,0.6-4.5,3.4-3.9,6.2l0,0c0.6,2.8,3.4,4.5,6.2,3.9l108.1-24
	c2.8-0.6,4.5-3.4,3.9-6.2l0,0C486.5,620.2,483.7,618.4,480.9,619.1z"/>
<path class="st1" d="M456.9,658.8l-55.2,12.3c-2.8,0.6-4.5,3.4-3.9,6.2l0,0c0.6,2.8,3.4,4.5,6.2,3.9l55.2-12.3
	c2.8-0.6,4.5-3.4,3.9-6.2l0,0C462.4,659.9,459.6,658.2,456.9,658.8z"/>
<path class="st0" d="M410.1,180.2L410.1,180.2c-3.8,0-6.9,3.1-6.9,6.9v45.4c0,3.8,3.1,6.9,6.9,6.9l0,0c3.8,0,6.9-3.1,6.9-6.9v-45.4
	C416.9,183.3,413.8,180.2,410.1,180.2z"/>
<path class="st0" d="M293.8,217.1L293.8,217.1c-3.1,2.2-3.9,6.5-1.8,9.6l25.8,37.4c2.2,3.1,6.5,3.9,9.6,1.8l0,0
	c3.1-2.2,3.9-6.5,1.8-9.6l-25.8-37.4C301.2,215.7,296.9,214.9,293.8,217.1z"/>
<path class="st0" d="M225.6,304.3L225.6,304.3c-1.5,3.4,0,7.5,3.4,9.1l41.3,18.8c3.4,1.5,7.5,0,9.1-3.4l0,0c1.5-3.4,0-7.5-3.4-9.1
	l-41.3-18.8C231.3,299.2,227.1,300.8,225.6,304.3z"/>
<path class="st0" d="M259,404.6L259,404.6c0-3.8-3.1-6.9-6.9-6.9h-45.4c-3.8,0-6.9,3.1-6.9,6.9l0,0c0,3.8,3.1,6.9,6.9,6.9h45.4
	C255.9,411.4,259,408.3,259,404.6z"/>
<path class="st0" d="M545.3,205.7L545.3,205.7c3.1,2.2,3.9,6.5,1.8,9.6l-25.8,37.4c-2.2,3.1-6.5,3.9-9.6,1.8l0,0
	c-3.1-2.2-3.9-6.5-1.8-9.6l25.8-37.4C537.9,204.4,542.2,203.6,545.3,205.7z"/>
<path class="st0" d="M613.5,292.8L613.5,292.8c1.5,3.4,0,7.5-3.4,9.1l-41.3,18.8c-3.4,1.5-7.5,0-9.1-3.4l0,0c-1.5-3.4,0-7.5,3.4-9.1
	l41.3-18.8C607.8,287.9,612,289.4,613.5,292.8z"/>
<path class="st0" d="M580.1,393.1L580.1,393.1c0-3.8,3.1-6.9,6.9-6.9h45.4c3.8,0,6.9,3.1,6.9,6.9l0,0c0,3.8-3.1,6.9-6.9,6.9H587
	C583.2,400.1,580.1,397,580.1,393.1z"/>
<circle class="st2" cx="424.1" cy="423.4" r="363"/>
</svg>
