<?xml version="1.0" encoding="utf-8"?>
<!-- Generator: Adobe Illustrator 22.0.1, SVG Export Plug-In . SVG Version: 6.00 Build 0)  -->
<!DOCTYPE svg PUBLIC "-//W3C//DTD SVG 1.1//EN" "http://www.w3.org/Graphics/SVG/1.1/DTD/svg11.dtd">
<svg version="1.1" id="Layer_1" xmlns="http://www.w3.org/2000/svg" xmlns:xlink="http://www.w3.org/1999/xlink" x="0px" y="0px"
	 viewBox="0 0 612 435" style="enable-background:new 0 0 612 435;" xml:space="preserve">
<style type="text/css">
	.st0{fill:#EBE8DC;}
	.st1{fill:#414143;}
	.st2{fill:#EE5A2B;}
	.st3{fill:#FFFFFF;}
	.st4{fill:none;}
	.st5{enable-background:new    ;}
	.st6{fill:none;stroke:#414143;stroke-width:0.2;stroke-miterlimit:10;}
</style>
<rect x="-975.9" y="-41" class="st0" width="468.4" height="281"/>
<g>
	<path class="st1" d="M-606.3,50.2c3.3-0.9,4.9-2.1,5-2.4l0,0c4.2-5.9,0.3-12,0-12.5c-0.7-0.7-1.4-1.4-2.1-2.1l0,0
		c-1.2-0.2-1.9,0.7-1.9,0.7c-1,2.1-2.1,4-3.8,5.4c-1.2,0.7-2.8,0.5-4,0c-1.7-0.7-2.1-2.4-2.1-4c-0.2-3.3-0.2-6.4,1-9.5
		c0.9-2.3,1.7-4.7,2.4-6.9c0.7-2.4,0.9-4.9-1-6.8c-1-1-2.4-1.6-3.5-2.3c-2.3-1.4-4.9-0.9-6.1,1.4c-5.6-1-10.9-0.2-16,2.4
		c-4,2.1-7.3,4.9-9,9.2c-1.9,4.9-1.9,9.7-1,14.7c0.5,2.6-0.5,5.2-2.8,6.1c-1.4,0.5-2.6,0.5-3.5-1.2c-1.2-2.6-0.7-5.2-0.2-7.6
		c1.2-4.5,2.6-8.8,4-13.2c0.9-2.9,0.5-5.7-2.1-7.6c-1.4-1-2.8-1.7-4.2-2.8c-1.4-0.9-1.9-0.2-2.4,1c-1.4,3.5-2.9,6.8-4.3,10.1
		c-2.4,5.6-5.7,10.6-7.3,16.5c-0.7,2.9-2.3,5.6-3.5,8.3c-0.2,0-0.2,0-0.3,0c0-0.3-0.2-0.7,0-1c0.9-4,1.7-8,2.6-12
		c0.5-2.1,1.4-4,1.7-5.9c1-5.2-1.4-9.4-6.4-10.8c-1-0.3-1.7-0.3-2.1,0.9c-2.4,8.8-4.9,17.9-5.2,27.1c-0.2,3.1,0,6.6-2.4,9.2
		c-0.5,0.5-1.6,1.4-1.9,1.2c-0.7-0.3-1.4-1.2-1.7-2.1c-0.3-0.7-0.2-1.6-0.2-2.3c0.2-6.8,2.3-13.2,4-19.8c0.5-2.1,0.9-4.3-0.7-5.9
		c-1.7-1.9-4-3.3-6.2-4.9c-1.6-1-2.4-0.2-3.3,1.2c-0.3,0.5-0.9,1-1.6,1.2c-2.6,0.5-5.4,0.5-8,1c-6.2,1.4-11.1,4.9-14.1,10.8
		c-2.6,5.6-2.6,11.3-2.4,17.2c0.2,3.6-1.7,7.1-5,8.7c-1.7,0.9-2.8,0.5-3.1-1.4c-0.3-1.6-0.5-3.3-0.5-5c0.3-5,1.7-9.7,3.5-14.6
		c0.5-1.7,1.2-3.5,1-5.2c-0.3-4.3-1.6-5.9-7.6-7.5c-1.4-0.3-2.1,0-2.4,1.4c-1,6.1-2.3,12.3-3.3,18.4c-0.5,4-0.7,8.2-1,12.1
		c-0.2,1.6-1.9,3.1-3.3,3.1c-1.4,0-2.8-1.4-2.6-3.1c0-2.3,0-4.7,0.7-6.9c1-3.8,2.8-7.6,4-11.4c0.7-2.1,1-4.3,1.2-6.4
		c0.2-3.5-2.8-6.9-6.1-7.6c-2.1-0.3-2.6,0-2.4,2.1c0.2,3.1-1.2,5.2-4,6.1c-1.7,0.5-3.6,0.5-5.6,0.9c-1.6,0.2-2.3-0.3-1.6-2.1
		c0.7-1.4,0-2.3-1.4-2.1c-2.4,0.2-4.9,0.3-7.3,0.9c-2.3,0.3-3.3,1.9-2.8,4.2c0.3,1.7,1,3.5,1.6,5.2c0.5,1.4,1.4,2.9,1.4,4.3
		c0,3.3-0.3,6.4-0.9,9.7c-0.7,4.2-2.8,7.6-5.6,10.8c-1.4,1.4-2.4,1.2-2.9-0.7c-0.5-1.7-1-3.6-0.9-5.4c0.5-5.9,1.2-11.8,1.9-17.9
		c0.7-5.6,2.6-10.6,5.2-15.3c2.1-3.8,2.8-6.9,0-9.9c-1.2-1.2-2.9-2.1-4.5-2.9c-3.1-1.7-4.5-1-5,2.4c0,0.2,0,0.5-0.2,0.7
		c-1.2,5.9-2.6,11.6-3.8,17.5c-0.3,2.1-1.6,2.9-3.6,2.9c-5.6,0-9.7,2.8-13,6.8c-5.9,7.3-8.3,15.6-5.4,25c0.3,1-0.2,2.6-0.9,3.5
		c-2.3,2.9-7.6,2.8-9.7-0.5c-3.1-4.7-4.2-9.9-4-15.4c0-1.6,0.5-2.4,2.3-2.9c3.8-1.4,7.3-6.8,7.3-10.6c0-1.7-0.7-2.4-2.4-2.1
		c-1,0.2-1.9,0.3-2.9,0.5c-1.4,0.2-1.9-0.5-1.6-1.9c0.3-1.7,0.7-3.6,1.2-5.4c1-4,2.3-8,3.3-12s-1-8-4.5-8.5c-4-0.5-8,0.2-11.3,2.4
		c-6.4,4.5-10.2,10.8-12.5,18c-1.7,5.7-2.8,11.8-4.3,17.5c-1.7,6.2-3.6,12.3-5.9,18.2c-1,2.6-2.8,5.4-5,7.1
		c-4.9,4-10.4,4.9-16.8,3.8c-6.1-1-10.9-3.6-15.6-7.5c-2.3-1.9-4.9-3.6-7.3-5c-2.3-1.4-4.7-0.2-4.7,2.6c0,2.4,0,4.9,0.5,7.1
		c0.7,2.4,1.4,5.4,3.1,7.1c2.3,2.3,5.2,3.8,8,5.4c6.4,3.5,13.4,4.7,20.5,4.5c2.4,0,5,0,7.3-0.9c5.7-2.1,10.6-5.4,14.2-10.8
		c5.2-7.8,9.9-15.8,12.1-25.2c0.9-3.8,1-3.8,5.2-3.6c0.2,0,0.3,0,0.5,0c1.2,0,1.6,0.5,1.6,1.7c0,2.4,0.2,4.9,0.3,7.5
		c0.3,5.9,1.7,11.4,7.3,14.9c4,2.4,8,4.2,12.3,1.6c1.7-0.9,3.3-2.1,4.7-3.5c1-1,1.9-1,3.3-0.7c3.1,0.7,6.2,1.4,9.4,1.6
		c2.1,0,4.5-0.7,5.9-1.9c2.3-1.9,4.3-2.3,7.1-1.9c3.5,0.3,6.6-0.7,8.8-3.8c4.2-5.7,6.2-12.3,7.8-18.9c1.7-7.1,0.7-5.7,7.5-6.4
		c0.2,0,0.2,0,0.5,0.2c0,0.5,0,1.2-0.2,1.7c-1,4.2-0.7,8.5,0.5,12.5c0.9,2.9,1.7,6.1,4.9,7.3c3.6,1.6,7.6,1.7,11.1-0.3
		c1.9-1,3.3-0.9,5,0c3.8,1.9,7.5,1.2,10.8-1.2c1.4-1,2.8-1.9,4-3.1c1-0.9,1.7-1,2.9-0.3c5,2.6,10.2,3.1,15.3,0.2
		c2.3-1.4,4.3-1.4,6.8-0.3c4,1.7,7.6,1.2,10.9-1.7c1.2-1,2.3-1.2,3.8-0.3c2.4,1.4,5,1,6.6-0.5c2.3-2.3,3.5-5,4.3-8.2
		c1-4,2.4-7.8,3.6-11.8c0-0.2,0.3-0.3,0.7-0.7c0.9,2.6,1.4,4.9,2.3,7.1c2.4,5.9,8.3,7.5,13.2,3.6c1.4-1.2,2.8-2.4,4-3.6
		c1.9,1.4,3.5,2.9,5.4,3.6c5.2,1.9,10.2,1.7,15.1-1.2c0.7-0.5,1.9-0.9,2.6-0.5c0.2,0.2,0.3,0.2,0.5,0.3
		C-621.5,48.9-612.9,51.5-606.3,50.2z M-828.3,40.5c-0.2,0.9-0.3,1.9-0.7,2.8c-0.3,0.7-0.9,1.4-1.6,1.6c-3.1,0.7-3.6,0.2-2.6-2.9
		c0.7-2.3,1.4-4.7,2.3-6.9c0.2-0.7,0.5-1.4,1-1.7c0.5-0.5,1.4-0.9,1.9-0.9c0.3,0,0.7,1,1.2,1.6C-827.3,36-827.8,38.3-828.3,40.5z
		 M-789.5,62.4c0,1.9,0,3.8-0.2,5.6c-0.2,2.8-0.3,2.9-3.1,3.6c-3.5,0.9-7.1-0.3-8-3.1s-0.9-5.6-0.3-8.5c0.9-4.5,4-7.3,7.3-9.9
		c1.2-0.9,2.8-1,4.5-1.7C-789.3,53.4-789.5,57.9-789.5,62.4z M-700.1,36.2c-0.2,1.9-0.7,4-0.7,5.9c0,3.6,0,7.5,0.2,11.1
		c0.2,1.7-0.2,3.1-1.7,3.8c-2.4,1-4.9,2.1-7.3,2.3c-2.9,0.2-4.3-1.4-5-4.3c-0.2-0.7-0.2-1.2-0.3-1.9c-0.5-6.1,0.5-11.8,4.7-15.8
		c1-0.9,2.1-1.7,3.5-2.4s3.1-1,4.7-1.2C-700.3,33.6-699.9,34.1-700.1,36.2z M-625.9,23.7c0,5.6,0.2,10.9,0.3,16.5
		c0,1.6-0.3,2.6-1.6,3.3c-6.1,4-11.4,0.3-11.6-3.5c-0.7-6.8,0.7-11.4,3.8-15.8c1.7-2.3,4.9-3.1,7.5-2.4
		C-626.2,22.1-625.9,22.5-625.9,23.7z"/>
	<path class="st1" d="M-734.5,25.1c5.7,1.6,9.7-2.4,9.9-8c0-1.7-0.9-2.3-2.6-2.1c-2.1,0.5-4.2,1.2-6.1,1.7c-2.6,0.7-4,3.1-3.3,5.6
		C-736.4,23.4-735.5,24.7-734.5,25.1z"/>
</g>
<g>
	<g>
		<path class="st1" d="M-698.9,95c5.7,1.6,9.7-2.4,9.9-8c0-1.7-0.9-2.3-2.6-2.1c-2.1,0.5-4.2,1.2-6.1,1.7c-2.6,0.7-4,3.1-3.3,5.6
			C-700.8,93.4-699.8,94.8-698.9,95z"/>
		<path class="st1" d="M-619.6,79.7c5.7,1.6,9.7-2.4,9.9-8c0-1.7-0.9-2.3-2.6-2.1c-2.1,0.5-4.2,1.2-6.1,1.7c-2.6,0.7-4,3.1-3.3,5.6
			C-621.5,78.2-620.5,79.6-619.6,79.7z"/>
		<path class="st1" d="M-595.9,115.8c-0.9-4.3-3.6-7.3-6.8-10.2l0,0c-1.2-0.2-1.9,0.7-1.9,0.7c-1.4,2.9-3.1,5.6-6.1,7.1
			c-2.3,1.2-4,0.2-4.2-2.3c-0.2-1.6-0.3-3.3,0-5c0.7-4.2,1.6-8.3,2.4-12.3c1.2-5.6,0.2-6.6-3.6-9.2c-1.2-0.9-2.6-1.2-3.8-1.7
			c-1.7-0.7-2.1-0.5-2.3,1.4c-0.5,2.9-1,5.9-1.4,8.8c-0.5,4.3-1,8.8-1.6,13.2c0,0.5-0.2,1.2,0,1.9c0.9,2.9-0.2,5.4-1.7,7.6
			c-0.9,1.2-2.4,1.2-3.1-0.2c-0.7-1.6-1.4-3.5-1.4-5.2c0-5.2,2.1-10.1,3.6-14.7c1.2-3.5,2.9-6.9,0-10.2c-1.7-2.1-4-3.6-6.1-5.4
			c-0.3-0.3-1.2-0.2-1.6-0.2c-0.7,2.8-1.4,5.2-2.1,7.6c-0.2,0.5-0.9,1.2-1.6,1.4c-2.4,0.7-4.9,1-7.6,1.6c0.3-1.4,0.7-2.3,1-3.5
			c-0.3-0.2-0.9-0.3-1.4-0.5c-3.5-0.3-6.6,0.3-9.7,1.9c-1.9,0.9-2.4,2.1-1.6,3.8c1.2,2.3,2.8,4.5,4.2,6.8c0.3,0.5,0.5,1,0.9,1.6
			c-1.7,13.2-10.2,23.2-10.2,23.2c-5.2,4.2-10.6,0.9-13.5-1.9c-0.3-0.3-1.4-1.7-1.2-5.4l0,0c1.2-0.2,2.3-0.2,3.5-0.2
			c9.5-0.5,14.9-5.4,15.8-14.7c0.7-6.1-4.5-11.3-10.6-10.6c-5,0.5-9.2,2.9-12.1,6.8c-6.1,7.3-8,15.4-4.3,24.5
			c0.2,0.5,0.5,1.2,0.2,1.7c-0.9,2.3-2.3,4-4.3,5.2c-3.5,1.7-5.7,0.3-5.2-3.5c0.7-4.7,1.9-9.5,2.8-14.2c0.3-1.9,1.2-4,1.2-5.9
			c0-3.8-4.2-7.6-8-7.5c-0.5,0-1.4,0.7-1.4,1c-0.5,1.9-0.9,4-1.4,5.9s-1.6,3.6-1.7,5.6c-0.3,4.9-0.3,9.7-0.5,14.6
			c0,1.6-0.5,3.3-1,4.9s-1.7,2.6-3.1,2.3c-1-0.2-2.1-1.4-2.6-2.3c-1.7-3.3-0.7-6.8,0.3-9.9c1-3.6,2.8-7.1,4-10.8
			c2.3-6.6,1.7-9-3.1-12.1c-0.3-0.3-0.9-0.5-1.2-0.7c-1.6-0.9-2.1-0.9-2.8,0.9c-0.5,1-0.7,2.3-1.2,3.3c-1.4,2.4-3.5,4.7-4.5,7.3
			c-2.4,5.9-4.3,12-6.6,17.9c-0.7,1.9-1.6,3.6-2.3,5.6c-0.2,0-0.3-0.2-0.5-0.2c0-0.2,0-0.5,0-0.7c1.4-5,2.6-10.2,4-15.3
			c0.7-2.3,1-4.2,0.2-6.4c-1.4-3.6-4.7-4.7-7.6-6.2c-1-0.5-1.4,0.3-1.4,1c0.2,3.5-1.2,6.8-2.3,10.1c-2.3,6.9-2.8,14.1-2.8,21.2
			c0,2.3-0.9,4.3-1.7,6.4c-0.3,0.7-1.9,1.7-2.4,1.6c-0.9-0.3-1.6-1.6-1.7-2.6c-1-6.2,0.3-12,2.8-17.7c2.9-6.8,0.2-11.8-6.2-14.7
			c-0.7-0.3-1.7-0.7-2.1,0.7c-0.2,0.3-0.9,0.7-1.4,0.7c-2.4,0.2-4.9,0-7.1,0.3c-6.9,1.4-12,5-14.4,12c-0.5,1.2-0.5,2.6-0.9,4
			c-1.4,4-1.2,8-1,12.1c0,1.7-0.3,3.6-0.9,5.4c-0.3,1.2-1.6,2.6-2.9,2.3c-1-0.3-2.1-1.6-2.4-2.8c-0.9-3.5-0.3-6.9,0.7-10.2
			c1.2-4.2,2.6-8.3,3.8-12.7c0.9-3.3,0.2-6.2-2.8-8.2c-1.7-1.2-3.8-1.9-5.9-2.6c-1.7-0.5-2.1-0.2-1.9,1.7c0.2,1.6,0.5,3.3,0,4.7
			c-0.7,2.4-4.2,3.6-7.3,2.6c0.7-1.9,0.5-2.4-1.4-3.1c-0.7-0.2-1.4-0.5-1.9-0.3c-2.9,0.3-5.9,0.9-8.8,1.6c-1.9,2.3,0.2,4.9,0.2,4.9
			c2.8,4.9,2.1,6.6,2.1,6.6c0,2.1-3.3,10.6-3.3,10.6c-0.9,1.9-1,1.7-1,1.7c-1.2,0.2-1.4-1.6-1.4-1.6c-0.3-1.4-0.7-2.8-0.7-4.3
			c0-2.1,0.3-4.2,0.7-6.2c0.2-1.6-0.3-2.1-1.9-1.7c-3.1,0.9-6.2,1.6-9.4,2.6c-2.9,0.9-3.6,1.4-3.3,4.7c0.3,3.6-0.5,6.9-1.6,10.4
			c-2.4,8-7.3,14.1-16,15.4c-6.8,1.2-11.4-0.5-13.7-6.8c-0.9-2.3-1.2-4.7-1-7.1c0.7-7.6,3.8-14.4,7.1-21.2c2.1-4.3,1.2-4.2,6.2-2.9
			c0.5,0.2,1,0.2,1.4,0.3c7.3,1.9,14.2,1.7,21.2-1.4c7.3-3.3,11.4-8.5,11.3-16.8c-0.2-4-2.8-8.8-7.1-10.1
			c-5.9-1.6-11.6-0.7-17.5,0.3c-5.4,0.9-9.9,3.3-13.5,7.3c-2.1,2.3-4,4.9-6.2,7.1c-0.7,0.7-1.7,1.4-2.8,1.4c-4.7,0.7-9.5,1-14.4,1.9
			c-5.6,1-10.8,2.6-15.4,5.9c-1.9,1.4-4.2,2.8-5.4,4.7c-2.8,4.3-2.9,9.4-1.4,14.2c0.2,0.7,0.9,1.6,1.4,1.9c0.3,0.2,1.2-0.5,1.7-1
			c2.3-2.4,4-5.2,6.6-7.1c4.5-3.6,9.2-6.8,14.7-8.3c2.4-0.7,4.9-2.1,7.6-1.4c-0.2,0.7-0.3,1.2-0.5,1.7c-0.9,2.6-1.9,5.2-2.4,7.8
			c-1.7,7.8-3.5,15.4-3.3,23.6c0,6.2,2.1,11.3,7.3,14.9c4.5,2.9,9.7,3.5,14.9,2.9c9-1,16-6.2,21.5-13.2c1.2-1.6,2.4-3.3,3.6-5
			c0.2,0,0.3,0.2,0.7,0.2c-0.2,1.4,0.2,3.1-0.5,4.3c-1.2,2.3-2.6,4.5-4.2,6.6c-4.2,5.7-8.2,11.6-10.6,18.4
			c-1.2,3.1-1.9,6.6-0.9,10.1c0.9,2.8,2.1,5.6,5,6.8c3.6,1.6,7.5,1.2,10.9-0.7c5-2.9,8.3-7.5,11.1-12.3c0.5-1,1-2.1,1.2-3.3
			c1.6-8,1.9-15.8,0.5-23.8c-0.2-1.2,0.2-2.8,0.7-3.8c2.8-6.2,6.2-12,7.6-18.9c0.3-1.7,1-3.5,1.7-5c0.2-0.5,0.7-1,1.2-1.2
			c1.6-0.3,3.1-0.5,4.9-0.7c0,0.3,0,0.7,0,1c-0.2,4-0.5,8-0.5,11.8c0,6.9,6.1,12.3,12.5,10.9c2.1-0.5,4-1.2,5.4-2.9
			c0.9-1,1.7-1.4,3.1-0.3c1.7,1,3.6,1.9,5.6,2.1c4,0.5,7.5-1.2,10.8-2.9c1.4-0.7,2.3-0.7,3.5,0.3c2.1,1.7,4.5,2.4,6.9,1.2
			c2.3-1,4.3-2.6,6.6-3.8c0.5-0.3,1.6-0.5,2.1-0.2c3.1,2.3,6.6,1.6,8.2-2.1c1.6-3.8,2.8-7.8,4.2-11.8c0.9-2.4,1.6-4.9,2.3-7.3
			c0.2,0,0.5,0,0.7,0.2c0.3,2.1,0.2,4.3,0.9,6.2c1.6,4.7,7.3,8.8,12.7,6.4c1.6-0.7,2.9-1.6,4.3-2.4c1.2-0.9,1.9-1,3.3-0.2
			c2.1,1.2,4.3,2.3,7.1,1.7c3.5-0.5,6.2-2.1,8.5-4.7c1.6-1.9,2.9-2.1,5-0.7c0.9,0.7,1.9,1,3.1,1.4l0,0c0,0,10.4,3.8,17.3-3.8
			c4.7-5,8.2-10.8,9.7-17.5c0.7-2.9,1.4-5.9,2.1-8.8c0.5-2.1,2.3-1.7,3.6-1.6c0.7,0,1.6,1.2,1.7,2.1c0.3,1.4,0.2,2.8,0,4.2
			c-0.3,4.7,0,9.2,2.3,13.2c1.2,2.1,2.8,3.8,5.2,4.3c2.8,0.5,5.4-0.2,7.8-1.6c1.7-1,3.1-2.4,4.7-3.6c3.8,3.8,8.5,3.1,13,3.1
			c-0.2,0.7-0.3,1.4-0.5,1.9c-2.3,5-5.2,9.2-9.5,12.8c-4.7,3.8-9.7,6.8-15.1,9.2c-4.5,2.1-9.2,2.8-14.1,3.5
			c-4.3,0.7-8.8,1.6-13.2,1.7c-8.3,0.2-16.7-0.2-25-0.3c-8.5-0.2-17-0.9-25.3,0.3c-8.7,1.2-17.5,2.1-26.2,3.5
			c-6.2,1-12.1,2.6-18.4,3.8c-9.4,1.9-18.6,4.2-27.2,8.2c-4.7,2.1-9,4.9-12.7,8.7c-1.7,1.9-3.1,4-4.9,5.9c-2.8,3.1-5.7,6.4-8.5,9.5
			c-0.5,0.5-1,1.6-0.9,1.7c0.5,0.7,1.4,1.7,2.3,1.9c2.3,0.3,4.5,0.3,6.6,0c5.2-0.7,9.4-3.5,13.4-6.9c1.7-1.6,3.3-3.6,5.2-5
			c5.9-4.2,12.5-7.6,19.3-10.2c5.2-1.9,10.4-3.6,15.6-5.4c4.2-1.4,8.5-2.8,12.8-3.3c8.2-1.2,16.3-1.9,24.3-2.9
			c2.1-0.2,4.2-0.3,6.2-0.3c12.7,0.5,25.2,1.2,37.6,1.9c8.3,0.5,16.7,0.2,24.6-2.3c7.3-2.1,14.2-4.9,20.8-8.7
			c5.6-3.1,11.1-6.1,14.7-11.4c2.4-3.5,5-7.1,6.9-10.9C-595.9,125.4-595,120.7-595.9,115.8z M-672,101.2c0.7-0.3,1.6,0,2.4-0.2
			c0,0.7,0.2,1.6-0.2,2.3c-1.7,3.3-4.2,5.6-8.3,5.9C-677.1,105.6-675.5,102.6-672,101.2z M-834.6,106.1c3.3-0.7,6.6-0.9,9.9-0.9
			c1.2,0,2.9,0.3,2.9,1.9c0,1.2-1,2.3-1.7,3.3c-0.2,0.3-0.7,0.3-1,0.5c-5.7,1.7-11.4,1.7-17.7,0.2
			C-839.8,108.7-837.5,106.8-834.6,106.1z M-817.9,180.5c-0.5,1.9-1.2,3.6-2.1,5.4c-0.3,0.7-1.2,1-1.9,1.4c-0.2-0.7-0.9-1.4-0.7-2.1
			c0.9-3.6,2.1-7.3,3.1-10.9c0.2-0.5,0.9-1,1.4-0.9c0.3,0,0.9,0.7,1.2,1C-817.2,176.5-817.4,178.6-817.9,180.5z M-754.2,121.9
			c-0.3,4.3-0.7,8.7-1.2,13c0,0.7,0,1.6,0,2.3c-0.3,3.3-2.4,5.2-5.9,5.7c-2.6,0.3-4.3-0.7-5.2-3.1c-2.6-6.9-0.5-15.1,5.7-18.6
			c1.6-0.9,3.6-1,5.6-1.2C-755.1,120-754.2,121.2-754.2,121.9z"/>
	</g>
	<path class="st0" d="M-702.2,105.1c0,0-2.1,19.6-2.6,21.9s-2.8-1-2.8-1l1.7-15.3L-702.2,105.1z"/>
</g>
<rect x="-1548.6" y="-30.6" class="st1" width="468.4" height="281"/>
<g>
	<g>
		<path class="st0" d="M-1281.2,102.8c5.7,1.6,9.7-2.4,9.9-8c0-1.7-0.9-2.3-2.6-2.1c-2.1,0.5-4.2,1.2-6.1,1.7
			c-2.6,0.7-4,3.1-3.3,5.6C-1283.2,101.1-1282.1,102.5-1281.2,102.8z"/>
		<path class="st0" d="M-1202,87.5c5.7,1.6,9.7-2.4,9.9-8c0-1.7-0.9-2.3-2.6-2.1c-2.1,0.5-4.2,1.2-6.1,1.7c-2.6,0.7-4,3.1-3.3,5.6
			C-1203.7,85.8-1202.8,87.2-1202,87.5z"/>
		<path class="st0" d="M-1178.2,123.6c-0.9-4.3-3.6-7.3-6.8-10.2l0,0c-1.2-0.2-1.9,0.7-1.9,0.7c-1.4,2.9-3.1,5.6-6.1,7.1
			c-2.3,1.2-4,0.2-4.2-2.3c-0.2-1.6-0.3-3.3,0-5c0.7-4.2,1.6-8.3,2.4-12.3c1.2-5.6,0.2-6.6-3.6-9.2c-1.2-0.9-2.6-1.2-3.8-1.7
			c-1.7-0.7-2.1-0.5-2.3,1.4c-0.5,2.9-1,5.9-1.4,8.8c-0.5,4.3-1,8.8-1.6,13.2c0,0.5-0.2,1.2,0,1.9c0.9,2.9-0.2,5.4-1.7,7.6
			c-0.9,1.2-2.4,1.2-3.1-0.2c-0.7-1.6-1.4-3.5-1.4-5.2c0-5.2,2.1-10.1,3.6-14.7c1.2-3.5,2.9-6.9,0-10.2c-1.7-2.1-4-3.6-6.1-5.4
			c-0.3-0.3-1.2-0.2-1.6-0.2c-0.7,2.8-1.4,5.2-2.1,7.6c-0.2,0.5-0.9,1.2-1.6,1.4c-2.4,0.7-4.9,1-7.6,1.6c0.3-1.4,0.7-2.3,1-3.5
			c-0.3-0.2-0.9-0.3-1.4-0.5c-3.5-0.3-6.6,0.3-9.7,1.9c-1.9,0.9-2.4,2.1-1.6,3.8c1.2,2.3,2.8,4.5,4.2,6.8c0.3,0.5,0.5,1,0.9,1.6
			c-1.7,13.2-10.2,23.2-10.2,23.2c-5.2,4.2-10.6,0.9-13.5-1.9c-0.3-0.3-1.4-1.7-1.2-5.4l0,0c1.2-0.2,2.3-0.2,3.5-0.2
			c9.5-0.5,14.9-5.4,15.8-14.7c0.7-6.1-4.5-11.3-10.6-10.6c-5,0.5-9.2,2.9-12.1,6.8c-6.1,7.3-8,15.4-4.3,24.5
			c0.2,0.5,0.5,1.2,0.2,1.7c-0.9,2.3-2.3,4-4.3,5.2c-3.5,1.7-5.7,0.3-5.2-3.5c0.7-4.7,1.9-9.5,2.8-14.2c0.3-1.9,1.2-4,1.2-5.9
			c0-3.8-4.2-7.6-8-7.5c-0.5,0-1.4,0.7-1.4,1c-0.5,1.9-0.9,4-1.4,5.9s-1.6,3.6-1.7,5.6c-0.3,4.9-0.3,9.7-0.5,14.6
			c0,1.6-0.5,3.3-1,4.9s-1.7,2.6-3.1,2.3c-1-0.2-2.1-1.4-2.6-2.3c-1.7-3.3-0.7-6.8,0.3-9.9c1-3.6,2.8-7.1,4-10.8
			c2.3-6.6,1.7-9-3.1-12.1c-0.3-0.3-0.9-0.5-1.2-0.7c-1.6-0.9-2.1-0.9-2.8,0.9c-0.5,1-0.7,2.3-1.2,3.3c-1.4,2.4-3.5,4.7-4.5,7.3
			c-2.4,5.9-4.3,12-6.6,17.9c-0.7,1.9-1.6,3.6-2.3,5.6c-0.2,0-0.3-0.2-0.5-0.2c0-0.2,0-0.5,0-0.7c1.4-5,2.6-10.2,4-15.3
			c0.7-2.3,1-4.2,0.2-6.4c-1.4-3.6-4.7-4.7-7.6-6.2c-1-0.5-1.4,0.3-1.4,1c0.2,3.5-1.2,6.8-2.3,10.1c-2.3,6.9-2.8,14.1-2.8,21.2
			c0,2.3-0.9,4.3-1.7,6.4c-0.3,0.7-1.9,1.7-2.4,1.6c-0.9-0.3-1.6-1.6-1.7-2.6c-1-6.2,0.3-12,2.8-17.7c2.9-6.8,0.2-11.8-6.2-14.7
			c-0.7-0.3-1.7-0.7-2.1,0.7c-0.2,0.3-0.9,0.7-1.4,0.7c-2.4,0.2-4.9,0-7.1,0.3c-6.9,1.4-12,5-14.4,12c-0.5,1.2-0.5,2.6-0.9,4
			c-1.4,4-1.2,8-1,12.1c0,1.7-0.3,3.6-0.9,5.4c-0.3,1.2-1.6,2.6-2.9,2.3c-1-0.3-2.1-1.6-2.4-2.8c-0.9-3.5-0.3-6.9,0.7-10.2
			c1.2-4.2,2.6-8.3,3.8-12.7c0.9-3.3,0.2-6.2-2.8-8.2c-1.7-1.2-3.8-1.9-5.9-2.6c-1.7-0.5-2.1-0.2-1.9,1.7c0.2,1.6,0.5,3.3,0,4.7
			c-0.7,2.4-4.2,3.6-7.3,2.6c0.7-1.9,0.5-2.4-1.4-3.1c-0.7-0.2-1.4-0.5-1.9-0.3c-2.9,0.3-5.9,0.9-8.8,1.6c-1.9,2.3,0.2,4.9,0.2,4.9
			c2.8,4.9,2.1,6.6,2.1,6.6c0,2.1-3.3,10.6-3.3,10.6c-0.9,1.9-1,1.7-1,1.7c-1.2,0.2-1.4-1.6-1.4-1.6c-0.3-1.4-0.7-2.8-0.7-4.3
			c0-2.1,0.3-4.2,0.7-6.2c0.2-1.6-0.3-2.1-1.9-1.7c-3.1,0.9-6.2,1.6-9.4,2.6c-2.9,0.9-3.6,1.4-3.3,4.7c0.3,3.6-0.5,6.9-1.6,10.4
			c-2.4,8-7.3,14.1-16,15.4c-6.8,1.2-11.4-0.5-13.7-6.8c-0.9-2.3-1.2-4.7-1-7.1c0.7-7.6,3.8-14.4,7.1-21.2c2.1-4.3,1.2-4.2,6.2-2.9
			c0.5,0.2,1,0.2,1.4,0.3c7.3,1.9,14.2,1.7,21.2-1.4c7.3-3.3,11.4-8.5,11.3-16.8c-0.2-4-2.8-8.8-7.1-10.1
			c-5.9-1.6-11.6-0.7-17.5,0.3c-5.4,0.9-9.9,3.3-13.5,7.3c-2.1,2.3-4,4.9-6.2,7.1c-0.7,0.7-1.7,1.4-2.8,1.4c-4.7,0.7-9.5,1-14.4,1.9
			c-5.6,1-10.8,2.6-15.4,5.9c-1.9,1.4-4.2,2.8-5.4,4.7c-2.8,4.3-2.9,9.4-1.4,14.2c0.2,0.7,0.9,1.6,1.4,1.9c0.3,0.2,1.2-0.5,1.7-1
			c2.3-2.4,4-5.2,6.6-7.1c4.5-3.6,9.2-6.8,14.7-8.3c2.4-0.7,4.9-2.1,7.6-1.4c-0.2,0.7-0.3,1.2-0.5,1.7c-0.9,2.6-1.9,5.2-2.4,7.8
			c-1.7,7.8-3.5,15.4-3.3,23.6c0,6.2,2.1,11.3,7.3,14.9c4.5,2.9,9.7,3.5,14.9,2.9c9-1,16-6.2,21.5-13.2c1.2-1.6,2.4-3.3,3.6-5
			c0.2,0,0.3,0.2,0.7,0.2c-0.2,1.4,0.2,3.1-0.5,4.3c-1.2,2.3-2.6,4.5-4.2,6.6c-4.2,5.7-8.2,11.6-10.6,18.4
			c-1.2,3.1-1.9,6.6-0.9,10.1c0.9,2.8,2.1,5.6,5,6.8c3.6,1.6,7.5,1.2,10.9-0.7c5-2.9,8.3-7.5,11.1-12.3c0.5-1,1-2.1,1.2-3.3
			c1.6-8,1.9-15.8,0.5-23.8c-0.2-1.2,0.2-2.8,0.7-3.8c2.8-6.2,6.2-12,7.6-18.9c0.3-1.7,1-3.5,1.7-5c0.2-0.5,0.7-1,1.2-1.2
			c1.6-0.3,3.1-0.5,4.9-0.7c0,0.3,0,0.7,0,1c-0.2,4-0.5,8-0.5,11.8c0,6.9,6.1,12.3,12.5,10.9c2.1-0.5,4-1.2,5.4-2.9
			c0.9-1,1.7-1.4,3.1-0.3c1.7,1,3.6,1.9,5.6,2.1c4,0.5,7.5-1.2,10.8-2.9c1.4-0.7,2.3-0.7,3.5,0.3c2.1,1.7,4.5,2.4,6.9,1.2
			c2.3-1,4.3-2.6,6.6-3.8c0.5-0.3,1.6-0.5,2.1-0.2c3.1,2.3,6.6,1.6,8.2-2.1c1.6-3.8,2.8-7.8,4.2-11.8c0.9-2.4,1.6-4.9,2.3-7.3
			c0.2,0,0.5,0,0.7,0.2c0.3,2.1,0.2,4.3,0.9,6.2c1.6,4.7,7.3,8.8,12.7,6.4c1.6-0.7,2.9-1.6,4.3-2.4c1.2-0.9,1.9-1,3.3-0.2
			c2.1,1.2,4.3,2.3,7.1,1.7c3.5-0.5,6.2-2.1,8.5-4.7c1.6-1.9,2.9-2.1,5-0.7c0.9,0.7,1.9,1,3.1,1.4l0,0c0,0,10.4,3.8,17.3-3.8
			c4.7-5,8.2-10.8,9.7-17.5c0.7-2.9,1.4-5.9,2.1-8.8c0.5-2.1,2.3-1.7,3.6-1.6c0.7,0,1.6,1.2,1.7,2.1c0.3,1.4,0.2,2.8,0,4.2
			c-0.3,4.7,0,9.2,2.3,13.2c1.2,2.1,2.8,3.8,5.2,4.3c2.8,0.5,5.4-0.2,7.8-1.6c1.7-1,3.1-2.4,4.7-3.6c3.8,3.8,8.5,3.1,13,3.1
			c-0.2,0.7-0.3,1.4-0.5,1.9c-2.3,5-5.2,9.2-9.5,12.8c-4.7,3.8-9.7,6.8-15.1,9.2c-4.5,2.1-9.2,2.8-14.1,3.5
			c-4.3,0.7-8.8,1.6-13.2,1.7c-8.3,0.2-16.7-0.2-25-0.3c-8.5-0.2-17-0.9-25.3,0.3c-8.7,1.2-17.5,2.1-26.2,3.5
			c-6.2,1-12.1,2.6-18.4,3.8c-9.4,1.9-18.6,4.2-27.2,8.2c-4.7,2.1-9,4.9-12.7,8.7c-1.7,1.9-3.1,4-4.9,5.9c-2.8,3.1-5.7,6.4-8.5,9.5
			c-0.5,0.5-1,1.6-0.9,1.7c0.5,0.7,1.4,1.7,2.3,1.9c2.3,0.3,4.5,0.3,6.6,0c5.2-0.7,9.4-3.5,13.4-6.9c1.7-1.6,3.3-3.6,5.2-5
			c5.9-4.2,12.5-7.6,19.3-10.2c5.2-1.9,10.4-3.6,15.6-5.4c4.2-1.4,8.5-2.8,12.8-3.3c8.2-1.2,16.3-1.9,24.3-2.9
			c2.1-0.2,4.2-0.3,6.2-0.3c12.7,0.5,25.2,1.2,37.6,1.9c8.3,0.5,16.7,0.2,24.6-2.3c7.3-2.1,14.2-4.9,20.8-8.7
			c5.6-3.1,11.1-6.1,14.7-11.4c2.4-3.5,5-7.1,6.9-10.9C-1178.2,133-1177.3,128.3-1178.2,123.6z M-1254.4,109.1
			c0.7-0.3,1.6,0,2.4-0.2c0,0.7,0.2,1.6-0.2,2.3c-1.7,3.3-4.2,5.6-8.3,5.9C-1259.4,113.4-1257.8,110.3-1254.4,109.1z M-1416.9,113.7
			c3.3-0.7,6.6-0.9,9.9-0.9c1.2,0,2.9,0.3,2.9,1.9c0,1.2-1,2.3-1.7,3.3c-0.2,0.3-0.7,0.3-1,0.5c-5.7,1.7-11.4,1.7-17.7,0.2
			C-1422.1,116.3-1419.8,114.4-1416.9,113.7z M-1400.2,188.2c-0.5,1.9-1.2,3.6-2.1,5.4c-0.3,0.7-1.2,1-1.9,1.4
			c-0.2-0.7-0.9-1.4-0.7-2.1c0.9-3.6,2.1-7.3,3.1-10.9c0.2-0.5,0.9-1,1.4-0.9c0.3,0,0.9,0.7,1.2,1
			C-1399.6,184.3-1399.7,186.2-1400.2,188.2z M-1336.6,129.5c-0.3,4.3-0.7,8.7-1.2,13c0,0.7,0,1.6,0,2.3c-0.3,3.3-2.4,5.2-5.9,5.7
			c-2.6,0.3-4.3-0.7-5.2-3.1c-2.6-6.9-0.5-15.1,5.7-18.6c1.6-0.9,3.6-1,5.6-1.2C-1337.4,127.8-1336.6,129-1336.6,129.5z"/>
	</g>
	<path class="st1" d="M-1284.5,112.7c0,0-2.1,19.6-2.6,21.9s-2.8-1-2.8-1l1.7-15.3L-1284.5,112.7z"/>
</g>
<rect x="-960.3" y="337.2" class="st1" width="468.4" height="281"/>
<rect x="-2091.5" y="-41" class="st2" width="468.4" height="281"/>
<g>
	<path class="st3" d="M-1731.6,47.5c3.3-0.9,4.9-2.1,5-2.4l0,0c4.2-5.9,0.3-12,0-12.5c-0.7-0.7-1.4-1.4-2.1-2.1l0,0
		c-1.2-0.2-1.9,0.7-1.9,0.7c-1,2.1-2.1,4-3.8,5.4c-1.2,0.7-2.8,0.5-4,0c-1.7-0.7-2.1-2.4-2.1-4c-0.2-3.3-0.2-6.4,1-9.5
		c0.9-2.3,1.7-4.7,2.4-6.9c0.7-2.4,0.9-4.9-1-6.8c-1-1-2.4-1.6-3.5-2.3c-2.3-1.4-4.9-0.9-6.1,1.4c-5.6-1-10.9-0.2-16,2.4
		c-4,2.1-7.3,4.9-9,9.2c-1.9,4.9-1.9,9.7-1,14.7c0.5,2.6-0.5,5.2-2.8,6.1c-1.4,0.5-2.6,0.5-3.5-1.2c-1.2-2.6-0.7-5.2-0.2-7.6
		c1.2-4.5,2.6-8.8,4-13.2c0.9-2.9,0.5-5.7-2.1-7.6c-1.4-1-2.8-1.7-4.2-2.8c-1.4-0.9-1.9-0.2-2.4,1c-1.4,3.5-2.9,6.8-4.3,10.1
		c-2.4,5.6-5.7,10.6-7.3,16.5c-0.7,2.9-2.3,5.6-3.5,8.3c-0.2,0-0.2,0-0.3,0c0-0.3-0.2-0.7,0-1c0.9-4,1.7-8,2.6-12
		c0.5-2.1,1.4-4,1.7-5.9c1-5.2-1.4-9.4-6.4-10.8c-1-0.3-1.7-0.3-2.1,0.9c-2.4,8.8-4.9,17.9-5.2,27.1c-0.2,3.1,0,6.6-2.4,9.2
		c-0.5,0.5-1.6,1.4-1.9,1.2c-0.7-0.3-1.4-1.2-1.7-2.1c-0.3-0.7-0.2-1.6-0.2-2.3c0.2-6.8,2.3-13.2,4-19.8c0.5-2.1,0.9-4.3-0.7-5.9
		c-1.7-1.9-4-3.3-6.2-4.9c-1.6-1-2.4-0.2-3.3,1.2c-0.3,0.5-0.9,1-1.6,1.2c-2.6,0.5-5.4,0.5-8,1c-6.2,1.4-11.1,4.9-14.1,10.8
		c-2.6,5.6-2.6,11.3-2.4,17.2c0.2,3.6-1.7,7.1-5,8.7c-1.7,0.9-2.8,0.5-3.1-1.4c-0.3-1.6-0.5-3.3-0.5-5c0.3-5,1.7-9.7,3.5-14.6
		c0.5-1.7,1.2-3.5,1-5.2c-0.3-4.3-1.6-5.9-7.6-7.5c-1.4-0.3-2.1,0-2.4,1.4c-1,6.1-2.3,12.3-3.3,18.4c-0.5,4-0.7,8.2-1,12.1
		c-0.2,1.6-1.9,3.1-3.3,3.1s-2.8-1.4-2.6-3.1c0-2.3,0-4.7,0.7-6.9c1-3.8,2.8-7.6,4-11.4c0.7-2.1,1-4.3,1.2-6.4
		c0.2-3.5-2.8-6.9-6.1-7.6c-2.1-0.3-2.6,0-2.4,2.1c0.2,3.1-1.2,5.2-4,6.1c-1.7,0.5-3.6,0.5-5.6,0.9c-1.6,0.2-2.3-0.3-1.6-2.1
		c0.7-1.4,0-2.3-1.4-2.1c-2.4,0.2-4.9,0.3-7.3,0.9c-2.3,0.3-3.3,1.9-2.8,4.2c0.3,1.7,1,3.5,1.6,5.2c0.5,1.4,1.4,2.9,1.4,4.3
		c0,3.3-0.3,6.4-0.9,9.7c-0.7,4.2-2.8,7.6-5.6,10.8c-1.4,1.4-2.4,1.2-2.9-0.7c-0.5-1.7-1-3.6-0.9-5.4c0.5-5.9,1.2-11.8,1.9-17.9
		c0.7-5.6,2.6-10.6,5.2-15.3c2.1-3.8,2.8-6.9,0-9.9c-1.2-1.2-2.9-2.1-4.5-2.9c-3.1-1.7-4.5-1-5,2.4c0,0.2,0,0.5-0.2,0.7
		c-1.2,5.9-2.6,11.6-3.8,17.5c-0.3,2.1-1.6,2.9-3.6,2.9c-5.6,0-9.7,2.8-13,6.8c-5.9,7.3-8.3,15.6-5.4,25c0.3,1-0.2,2.6-0.9,3.5
		c-2.3,2.9-7.6,2.8-9.7-0.5c-3.1-4.7-4.2-9.9-4-15.4c0-1.6,0.5-2.4,2.3-2.9c3.8-1.4,7.3-6.8,7.3-10.6c0-1.7-0.7-2.4-2.4-2.1
		c-1,0.2-1.9,0.3-2.9,0.5c-1.4,0.2-1.9-0.5-1.6-1.9c0.3-1.7,0.7-3.6,1.2-5.4c1-4,2.3-8,3.3-12s-1-8-4.5-8.5c-4-0.5-8,0.2-11.3,2.4
		c-6.4,4.5-10.2,10.8-12.5,18c-1.7,5.7-2.8,11.8-4.3,17.5c-1.7,6.2-3.6,12.3-5.9,18.2c-1,2.6-2.8,5.4-5,7.1
		c-4.9,4-10.4,4.9-16.8,3.8c-6.1-1-10.9-3.6-15.6-7.5c-2.3-1.9-4.9-3.6-7.3-5c-2.3-1.4-4.7-0.2-4.7,2.6c0,2.4,0,4.9,0.5,7.1
		c0.7,2.4,1.4,5.4,3.1,7.1c2.3,2.3,5.2,3.8,8,5.4c6.4,3.5,13.4,4.7,20.5,4.5c2.4,0,5,0,7.3-0.9c5.7-2.1,10.6-5.4,14.2-10.8
		c5.2-7.8,9.9-15.8,12.1-25.2c0.9-3.8,1-3.8,5.2-3.6c0.2,0,0.3,0,0.5,0c1.2,0,1.6,0.5,1.6,1.7c0,2.4,0.2,4.9,0.3,7.5
		c0.3,5.9,1.7,11.4,7.3,14.9c4,2.4,8,4.2,12.3,1.6c1.7-0.9,3.3-2.1,4.7-3.5c1-1,1.9-1,3.3-0.7c3.1,0.7,6.2,1.4,9.4,1.6
		c2.1,0,4.5-0.7,5.9-1.9c2.3-1.9,4.3-2.3,7.1-1.9c3.5,0.3,6.6-0.7,8.8-3.8c4.2-5.7,6.2-12.3,7.8-18.9c1.7-7.1,0.7-5.7,7.5-6.4
		c0.2,0,0.2,0,0.5,0.2c0,0.5,0,1.2-0.2,1.7c-1,4.2-0.7,8.5,0.5,12.5c0.9,2.9,1.7,6.1,4.9,7.3c3.6,1.6,7.6,1.7,11.1-0.3
		c1.9-1,3.3-0.9,5,0c3.8,1.9,7.5,1.2,10.8-1.2c1.4-1,2.8-1.9,4-3.1c1-0.9,1.7-1,2.9-0.3c5,2.6,10.2,3.1,15.3,0.2
		c2.3-1.4,4.3-1.4,6.8-0.3c4,1.7,7.6,1.2,10.9-1.7c1.2-1,2.3-1.2,3.8-0.3c2.4,1.4,5,1,6.6-0.5c2.3-2.3,3.5-5,4.3-8.2
		c1-4,2.4-7.8,3.6-11.8c0-0.2,0.3-0.3,0.7-0.7c0.9,2.6,1.4,4.9,2.3,7.1c2.4,5.9,8.3,7.5,13.2,3.6c1.4-1.2,2.8-2.4,4-3.6
		c1.9,1.4,3.5,2.9,5.4,3.6c5.2,1.9,10.2,1.7,15.1-1.2c0.7-0.5,1.9-0.9,2.6-0.5c0.2,0.2,0.3,0.2,0.5,0.3
		C-1746.8,46.1-1738.2,48.7-1731.6,47.5z M-1953.6,37.8c-0.2,0.9-0.3,1.9-0.7,2.8c-0.3,0.7-0.9,1.4-1.6,1.6
		c-3.1,0.7-3.6,0.2-2.6-2.9c0.7-2.3,1.4-4.7,2.3-6.9c0.2-0.7,0.5-1.4,1-1.7c0.5-0.5,1.4-0.9,1.9-0.9c0.3,0,0.7,1,1.2,1.6
		C-1952.6,33.2-1953.1,35.5-1953.6,37.8z M-1914.8,59.6c0,1.9,0,3.8-0.2,5.6c-0.2,2.8-0.3,2.9-3.1,3.6c-3.5,0.9-7.1-0.3-8-3.1
		s-0.9-5.6-0.3-8.5c0.9-4.5,4-7.3,7.3-9.9c1.2-0.9,2.8-1,4.5-1.7C-1914.6,50.6-1914.8,55.1-1914.8,59.6z M-1825.4,33.4
		c-0.2,1.9-0.7,4-0.7,5.9c0,3.6,0,7.5,0.2,11.1c0.2,1.7-0.2,3.1-1.7,3.8c-2.4,1-4.9,2.1-7.3,2.3c-2.9,0.2-4.3-1.4-5-4.3
		c-0.2-0.7-0.2-1.2-0.3-1.9c-0.5-6.1,0.5-11.8,4.7-15.8c1-0.9,2.1-1.7,3.5-2.4s3.1-1,4.7-1.2C-1825.6,30.8-1825.2,31.3-1825.4,33.4z
		 M-1751.2,20.9c0,5.6,0.2,10.9,0.3,16.5c0,1.6-0.3,2.6-1.6,3.3c-6.1,4-11.4,0.3-11.6-3.5c-0.7-6.8,0.7-11.4,3.8-15.8
		c1.7-2.3,4.9-3.1,7.5-2.4C-1751.5,19.4-1751.2,19.7-1751.2,20.9z"/>
	<path class="st3" d="M-1859.8,22.3c5.7,1.6,9.7-2.4,9.9-8c0-1.7-0.9-2.3-2.6-2.1c-2.1,0.5-4.2,1.2-6.1,1.7c-2.6,0.7-4,3.1-3.3,5.6
		C-1861.7,20.6-1860.8,22-1859.8,22.3z"/>
</g>
<g>
	<g>
		<path class="st3" d="M-1824.2,92.2c5.7,1.6,9.7-2.4,9.9-8c0-1.7-0.9-2.3-2.6-2.1c-2.1,0.5-4.2,1.2-6.1,1.7c-2.6,0.7-4,3.1-3.3,5.6
			C-1826.1,90.7-1825.1,92.1-1824.2,92.2z"/>
		<path class="st3" d="M-1744.9,77c5.7,1.6,9.7-2.4,9.9-8c0-1.7-0.9-2.3-2.6-2.1c-2.1,0.5-4.2,1.2-6.1,1.7c-2.6,0.7-4,3.1-3.3,5.6
			C-1746.7,75.4-1745.8,76.8-1744.9,77z"/>
		<path class="st3" d="M-1721.2,113c-0.9-4.3-3.6-7.3-6.8-10.2l0,0c-1.2-0.2-1.9,0.7-1.9,0.7c-1.4,2.9-3.1,5.6-6.1,7.1
			c-2.3,1.2-4,0.2-4.2-2.3c-0.2-1.6-0.3-3.3,0-5c0.7-4.2,1.6-8.3,2.4-12.3c1.2-5.6,0.2-6.6-3.6-9.2c-1.2-0.9-2.6-1.2-3.8-1.7
			c-1.7-0.7-2.1-0.5-2.3,1.4c-0.5,2.9-1,5.9-1.4,8.8c-0.5,4.3-1,8.8-1.6,13.2c0,0.5-0.2,1.2,0,1.9c0.9,2.9-0.2,5.4-1.7,7.6
			c-0.9,1.2-2.4,1.2-3.1-0.2c-0.7-1.6-1.4-3.5-1.4-5.2c0-5.2,2.1-10.1,3.6-14.7c1.2-3.5,2.9-6.9,0-10.2c-1.7-2.1-4-3.6-6.1-5.4
			c-0.3-0.3-1.2-0.2-1.6-0.2c-0.7,2.8-1.4,5.2-2.1,7.6c-0.2,0.5-0.9,1.2-1.6,1.4c-2.4,0.7-4.9,1-7.6,1.6c0.3-1.4,0.7-2.3,1-3.5
			c-0.3-0.2-0.9-0.3-1.4-0.5c-3.5-0.3-6.6,0.3-9.7,1.9c-1.9,0.9-2.4,2.1-1.6,3.8c1.2,2.3,2.8,4.5,4.2,6.8c0.3,0.5,0.5,1,0.9,1.6
			c-1.7,13.2-10.2,23.2-10.2,23.2c-5.2,4.2-10.6,0.9-13.5-1.9c-0.3-0.3-1.4-1.7-1.2-5.4l0,0c1.2-0.2,2.3-0.2,3.5-0.2
			c9.5-0.5,14.9-5.4,15.8-14.7c0.7-6.1-4.5-11.3-10.6-10.6c-5,0.5-9.2,2.9-12.1,6.8c-6.1,7.3-8,15.4-4.3,24.5
			c0.2,0.5,0.5,1.2,0.2,1.7c-0.9,2.3-2.3,4-4.3,5.2c-3.5,1.7-5.7,0.3-5.2-3.5c0.7-4.7,1.9-9.5,2.8-14.2c0.3-1.9,1.2-4,1.2-5.9
			c0-3.8-4.2-7.6-8-7.5c-0.5,0-1.4,0.7-1.4,1c-0.5,1.9-0.9,4-1.4,5.9s-1.6,3.6-1.7,5.6c-0.3,4.9-0.3,9.7-0.5,14.6
			c0,1.6-0.5,3.3-1,4.9s-1.7,2.6-3.1,2.3c-1-0.2-2.1-1.4-2.6-2.3c-1.7-3.3-0.7-6.8,0.3-9.9c1-3.6,2.8-7.1,4-10.8
			c2.3-6.6,1.7-9-3.1-12.1c-0.3-0.3-0.9-0.5-1.2-0.7c-1.6-0.9-2.1-0.9-2.8,0.9c-0.5,1-0.7,2.3-1.2,3.3c-1.4,2.4-3.5,4.7-4.5,7.3
			c-2.4,5.9-4.3,12-6.6,17.9c-0.7,1.9-1.6,3.6-2.3,5.6c-0.2,0-0.3-0.2-0.5-0.2c0-0.2,0-0.5,0-0.7c1.4-5,2.6-10.2,4-15.3
			c0.7-2.3,1-4.2,0.2-6.4c-1.4-3.6-4.7-4.7-7.6-6.2c-1-0.5-1.4,0.3-1.4,1c0.2,3.5-1.2,6.8-2.3,10.1c-2.3,6.9-2.8,14.1-2.8,21.2
			c0,2.3-0.9,4.3-1.7,6.4c-0.3,0.7-1.9,1.7-2.4,1.6c-0.9-0.3-1.6-1.6-1.7-2.6c-1-6.2,0.3-12,2.8-17.7c2.9-6.8,0.2-11.8-6.2-14.7
			c-0.7-0.3-1.7-0.7-2.1,0.7c-0.2,0.3-0.9,0.7-1.4,0.7c-2.4,0.2-4.9,0-7.1,0.3c-6.9,1.4-12,5-14.4,12c-0.5,1.2-0.5,2.6-0.9,4
			c-1.4,4-1.2,8-1,12.1c0,1.7-0.3,3.6-0.9,5.4c-0.3,1.2-1.6,2.6-2.9,2.3c-1-0.3-2.1-1.6-2.4-2.8c-0.9-3.5-0.3-6.9,0.7-10.2
			c1.2-4.2,2.6-8.3,3.8-12.7c0.9-3.3,0.2-6.2-2.8-8.2c-1.7-1.2-3.8-1.9-5.9-2.6c-1.7-0.5-2.1-0.2-1.9,1.7c0.2,1.6,0.5,3.3,0,4.7
			c-0.7,2.4-4.2,3.6-7.3,2.6c0.7-1.9,0.5-2.4-1.4-3.1c-0.7-0.2-1.4-0.5-1.9-0.3c-2.9,0.3-5.9,0.9-8.8,1.6c-1.9,2.3,0.2,4.9,0.2,4.9
			c2.8,4.9,2.1,6.6,2.1,6.6c0,2.1-3.3,10.6-3.3,10.6c-0.9,1.9-1,1.7-1,1.7c-1.2,0.2-1.4-1.6-1.4-1.6c-0.3-1.4-0.7-2.8-0.7-4.3
			c0-2.1,0.3-4.2,0.7-6.2c0.2-1.6-0.3-2.1-1.9-1.7c-3.1,0.9-6.2,1.6-9.4,2.6c-2.9,0.9-3.6,1.4-3.3,4.7c0.3,3.6-0.5,6.9-1.6,10.4
			c-2.4,8-7.3,14.1-16,15.4c-6.8,1.2-11.4-0.5-13.7-6.8c-0.9-2.3-1.2-4.7-1-7.1c0.7-7.6,3.8-14.4,7.1-21.2c2.1-4.3,1.2-4.2,6.2-2.9
			c0.5,0.2,1,0.2,1.4,0.3c7.3,1.9,14.2,1.7,21.2-1.4c7.3-3.3,11.4-8.5,11.3-16.8c-0.2-4-2.8-8.8-7.1-10.1
			c-5.9-1.6-11.6-0.7-17.5,0.3c-5.4,0.9-9.9,3.3-13.5,7.3c-2.1,2.3-4,4.9-6.2,7.1c-0.7,0.7-1.7,1.4-2.8,1.4c-4.7,0.7-9.5,1-14.4,1.9
			c-5.6,1-10.8,2.6-15.4,5.9c-1.9,1.4-4.2,2.8-5.4,4.7c-2.8,4.3-2.9,9.4-1.4,14.2c0.2,0.7,0.9,1.6,1.4,1.9c0.3,0.2,1.2-0.5,1.7-1
			c2.3-2.4,4-5.2,6.6-7.1c4.5-3.6,9.2-6.8,14.7-8.3c2.4-0.7,4.9-2.1,7.6-1.4c-0.2,0.7-0.3,1.2-0.5,1.7c-0.9,2.6-1.9,5.2-2.4,7.8
			c-1.7,7.8-3.5,15.4-3.3,23.6c0,6.2,2.1,11.3,7.3,14.9c4.5,2.9,9.7,3.5,14.9,2.9c9-1,16-6.2,21.5-13.2c1.2-1.6,2.4-3.3,3.6-5
			c0.2,0,0.3,0.2,0.7,0.2c-0.2,1.4,0.2,3.1-0.5,4.3c-1.2,2.3-2.6,4.5-4.2,6.6c-4.2,5.7-8.2,11.6-10.6,18.4
			c-1.2,3.1-1.9,6.6-0.9,10.1c0.9,2.8,2.1,5.6,5,6.8c3.6,1.6,7.5,1.2,10.9-0.7c5-2.9,8.3-7.5,11.1-12.3c0.5-1,1-2.1,1.2-3.3
			c1.6-8,1.9-15.8,0.5-23.8c-0.2-1.2,0.2-2.8,0.7-3.8c2.8-6.2,6.2-12,7.6-18.9c0.3-1.7,1-3.5,1.7-5c0.2-0.5,0.7-1,1.2-1.2
			c1.6-0.3,3.1-0.5,4.9-0.7c0,0.3,0,0.7,0,1c-0.2,4-0.5,8-0.5,11.8c0,6.9,6.1,12.3,12.5,10.9c2.1-0.5,4-1.2,5.4-2.9
			c0.9-1,1.7-1.4,3.1-0.3c1.7,1,3.6,1.9,5.6,2.1c4,0.5,7.5-1.2,10.8-2.9c1.4-0.7,2.3-0.7,3.5,0.3c2.1,1.7,4.5,2.4,6.9,1.2
			c2.3-1,4.3-2.6,6.6-3.8c0.5-0.3,1.6-0.5,2.1-0.2c3.1,2.3,6.6,1.6,8.2-2.1c1.6-3.8,2.8-7.8,4.2-11.8c0.9-2.4,1.6-4.9,2.3-7.3
			c0.2,0,0.5,0,0.7,0.2c0.3,2.1,0.2,4.3,0.9,6.2c1.6,4.7,7.3,8.8,12.7,6.4c1.6-0.7,2.9-1.6,4.3-2.4c1.2-0.9,1.9-1,3.3-0.2
			c2.1,1.2,4.3,2.3,7.1,1.7c3.5-0.5,6.2-2.1,8.5-4.7c1.6-1.9,2.9-2.1,5-0.7c0.9,0.7,1.9,1,3.1,1.4l0,0c0,0,10.4,3.8,17.3-3.8
			c4.7-5,8.2-10.8,9.7-17.5c0.7-2.9,1.4-5.9,2.1-8.8c0.5-2.1,2.3-1.7,3.6-1.6c0.7,0,1.6,1.2,1.7,2.1c0.3,1.4,0.2,2.8,0,4.2
			c-0.3,4.7,0,9.2,2.3,13.2c1.2,2.1,2.8,3.8,5.2,4.3c2.8,0.5,5.4-0.2,7.8-1.6c1.7-1,3.1-2.4,4.7-3.6c3.8,3.8,8.5,3.1,13,3.1
			c-0.2,0.7-0.3,1.4-0.5,1.9c-2.3,5-5.2,9.2-9.5,12.8c-4.7,3.8-9.7,6.8-15.1,9.2c-4.5,2.1-9.2,2.8-14.1,3.5
			c-4.3,0.7-8.8,1.6-13.2,1.7c-8.3,0.2-16.7-0.2-25-0.3c-8.5-0.2-17-0.9-25.3,0.3c-8.7,1.2-17.5,2.1-26.2,3.5
			c-6.2,1-12.1,2.6-18.4,3.8c-9.4,1.9-18.6,4.2-27.2,8.2c-4.7,2.1-9,4.9-12.7,8.7c-1.7,1.9-3.1,4-4.9,5.9c-2.8,3.1-5.7,6.4-8.5,9.5
			c-0.5,0.5-1,1.6-0.9,1.7c0.5,0.7,1.4,1.7,2.3,1.9c2.3,0.3,4.5,0.3,6.6,0c5.2-0.7,9.4-3.5,13.4-6.9c1.7-1.6,3.3-3.6,5.2-5
			c5.9-4.2,12.5-7.6,19.3-10.2c5.2-1.9,10.4-3.6,15.6-5.4c4.2-1.4,8.5-2.8,12.8-3.3c8.2-1.2,16.3-1.9,24.3-2.9
			c2.1-0.2,4.2-0.3,6.2-0.3c12.7,0.5,25.2,1.2,37.6,1.9c8.3,0.5,16.7,0.2,24.6-2.3c7.3-2.1,14.2-4.9,20.8-8.7
			c5.6-3.1,11.1-6.1,14.7-11.4c2.4-3.5,5-7.1,6.9-10.9C-1721.2,122.6-1720.3,117.9-1721.2,113z M-1797.3,98.5c0.7-0.3,1.6,0,2.4-0.2
			c0,0.7,0.2,1.6-0.2,2.3c-1.7,3.3-4.2,5.6-8.3,5.9C-1802.3,103-1800.8,99.9-1797.3,98.5z M-1959.9,103.3c3.3-0.7,6.6-0.9,9.9-0.9
			c1.2,0,2.9,0.3,2.9,1.9c0,1.2-1,2.3-1.7,3.3c-0.2,0.3-0.7,0.3-1,0.5c-5.7,1.7-11.4,1.7-17.7,0.2
			C-1965.1,105.9-1962.8,104-1959.9,103.3z M-1943.2,177.7c-0.5,1.9-1.2,3.6-2.1,5.4c-0.3,0.7-1.2,1-1.9,1.4
			c-0.2-0.7-0.9-1.4-0.7-2.1c0.9-3.6,2.1-7.3,3.1-10.9c0.2-0.5,0.9-1,1.4-0.9c0.3,0,0.9,0.7,1.2,1
			C-1942.5,173.8-1942.7,175.8-1943.2,177.7z M-1879.5,119.1c-0.3,4.3-0.7,8.7-1.2,13c0,0.7,0,1.6,0,2.3c-0.3,3.3-2.4,5.2-5.9,5.7
			c-2.6,0.3-4.3-0.7-5.2-3.1c-2.6-6.9-0.5-15.1,5.7-18.6c1.6-0.9,3.6-1,5.6-1.2C-1880.4,117.2-1879.5,118.4-1879.5,119.1z"/>
	</g>
	<path class="st2" d="M-1827.5,102.3c0,0-2.1,19.6-2.6,21.9s-2.8-1-2.8-1l1.7-15.3L-1827.5,102.3z"/>
</g>
<rect x="-2679.4" y="-41" class="st2" width="468.4" height="281"/>
<g>
	<path class="st0" d="M-2319.5,47.5c3.3-0.9,4.9-2.1,5-2.4l0,0c4.2-5.9,0.3-12,0-12.5c-0.7-0.7-1.4-1.4-2.1-2.1l0,0
		c-1.2-0.2-1.9,0.7-1.9,0.7c-1,2.1-2.1,4-3.8,5.4c-1.2,0.7-2.8,0.5-4,0c-1.7-0.7-2.1-2.4-2.1-4c-0.2-3.3-0.2-6.4,1-9.5
		c0.9-2.3,1.7-4.7,2.4-6.9c0.7-2.4,0.9-4.9-1-6.8c-1-1-2.4-1.6-3.5-2.3c-2.3-1.4-4.9-0.9-6.1,1.4c-5.6-1-10.9-0.2-16,2.4
		c-4,2.1-7.3,4.9-9,9.2c-1.9,4.9-1.9,9.7-1,14.7c0.5,2.6-0.5,5.2-2.8,6.1c-1.4,0.5-2.6,0.5-3.5-1.2c-1.2-2.6-0.7-5.2-0.2-7.6
		c1.2-4.5,2.6-8.8,4-13.2c0.9-2.9,0.5-5.7-2.1-7.6c-1.4-1-2.8-1.7-4.2-2.8c-1.4-0.9-1.9-0.2-2.4,1c-1.4,3.5-2.9,6.8-4.3,10.1
		c-2.4,5.6-5.7,10.6-7.3,16.5c-0.7,2.9-2.3,5.6-3.5,8.3c-0.2,0-0.2,0-0.3,0c0-0.3-0.2-0.7,0-1c0.9-4,1.7-8,2.6-12
		c0.5-2.1,1.4-4,1.7-5.9c1-5.2-1.4-9.4-6.4-10.8c-1-0.3-1.7-0.3-2.1,0.9c-2.4,8.8-4.9,17.9-5.2,27.1c-0.2,3.1,0,6.6-2.4,9.2
		c-0.5,0.5-1.6,1.4-1.9,1.2c-0.7-0.3-1.4-1.2-1.7-2.1c-0.3-0.7-0.2-1.6-0.2-2.3c0.2-6.8,2.3-13.2,4-19.8c0.5-2.1,0.9-4.3-0.7-5.9
		c-1.7-1.9-4-3.3-6.2-4.9c-1.6-1-2.4-0.2-3.3,1.2c-0.3,0.5-0.9,1-1.6,1.2c-2.6,0.5-5.4,0.5-8,1c-6.2,1.4-11.1,4.9-14.1,10.8
		c-2.6,5.6-2.6,11.3-2.4,17.2c0.2,3.6-1.7,7.1-5,8.7c-1.7,0.9-2.8,0.5-3.1-1.4c-0.3-1.6-0.5-3.3-0.5-5c0.3-5,1.7-9.7,3.5-14.6
		c0.5-1.7,1.2-3.5,1-5.2c-0.3-4.3-1.6-5.9-7.6-7.5c-1.4-0.3-2.1,0-2.4,1.4c-1,6.1-2.3,12.3-3.3,18.4c-0.5,4-0.7,8.2-1,12.1
		c-0.2,1.6-1.9,3.1-3.3,3.1c-1.4,0-2.8-1.4-2.6-3.1c0-2.3,0-4.7,0.7-6.9c1-3.8,2.8-7.6,4-11.4c0.7-2.1,1-4.3,1.2-6.4
		c0.2-3.5-2.8-6.9-6.1-7.6c-2.1-0.3-2.6,0-2.4,2.1c0.2,3.1-1.2,5.2-4,6.1c-1.7,0.5-3.6,0.5-5.6,0.9c-1.6,0.2-2.3-0.3-1.6-2.1
		c0.7-1.4,0-2.3-1.4-2.1c-2.4,0.2-4.9,0.3-7.3,0.9c-2.3,0.3-3.3,1.9-2.8,4.2c0.3,1.7,1,3.5,1.6,5.2c0.5,1.4,1.4,2.9,1.4,4.3
		c0,3.3-0.3,6.4-0.9,9.7c-0.7,4.2-2.8,7.6-5.6,10.8c-1.4,1.4-2.4,1.2-2.9-0.7c-0.5-1.7-1-3.6-0.9-5.4c0.5-5.9,1.2-11.8,1.9-17.9
		c0.7-5.6,2.6-10.6,5.2-15.3c2.1-3.8,2.8-6.9,0-9.9c-1.2-1.2-2.9-2.1-4.5-2.9c-3.1-1.7-4.5-1-5,2.4c0,0.2,0,0.5-0.2,0.7
		c-1.2,5.9-2.6,11.6-3.8,17.5c-0.3,2.1-1.6,2.9-3.6,2.9c-5.6,0-9.7,2.8-13,6.8c-5.9,7.3-8.3,15.6-5.4,25c0.3,1-0.2,2.6-0.9,3.5
		c-2.3,2.9-7.6,2.8-9.7-0.5c-3.1-4.7-4.2-9.9-4-15.4c0-1.6,0.5-2.4,2.3-2.9c3.8-1.4,7.3-6.8,7.3-10.6c0-1.7-0.7-2.4-2.4-2.1
		c-1,0.2-1.9,0.3-2.9,0.5c-1.4,0.2-1.9-0.5-1.6-1.9c0.3-1.7,0.7-3.6,1.2-5.4c1-4,2.3-8,3.3-12s-1-8-4.5-8.5c-4-0.5-8,0.2-11.3,2.4
		c-6.4,4.5-10.2,10.8-12.5,18c-1.7,5.7-2.8,11.8-4.3,17.5c-1.7,6.2-3.6,12.3-5.9,18.2c-1,2.6-2.8,5.4-5,7.1
		c-4.9,4-10.4,4.9-16.8,3.8c-6.1-1-10.9-3.6-15.6-7.5c-2.3-1.9-4.9-3.6-7.3-5c-2.3-1.4-4.7-0.2-4.7,2.6c0,2.4,0,4.9,0.5,7.1
		c0.7,2.4,1.4,5.4,3.1,7.1c2.3,2.3,5.2,3.8,8,5.4c6.4,3.5,13.4,4.7,20.5,4.5c2.4,0,5,0,7.3-0.9c5.7-2.1,10.6-5.4,14.2-10.8
		c5.2-7.8,9.9-15.8,12.1-25.2c0.9-3.8,1-3.8,5.2-3.6c0.2,0,0.3,0,0.5,0c1.2,0,1.6,0.5,1.6,1.7c0,2.4,0.2,4.9,0.3,7.5
		c0.3,5.9,1.7,11.4,7.3,14.9c4,2.4,8,4.2,12.3,1.6c1.7-0.9,3.3-2.1,4.7-3.5c1-1,1.9-1,3.3-0.7c3.1,0.7,6.2,1.4,9.4,1.6
		c2.1,0,4.5-0.7,5.9-1.9c2.3-1.9,4.3-2.3,7.1-1.9c3.5,0.3,6.6-0.7,8.8-3.8c4.2-5.7,6.2-12.3,7.8-18.9c1.7-7.1,0.7-5.7,7.5-6.4
		c0.2,0,0.2,0,0.5,0.2c0,0.5,0,1.2-0.2,1.7c-1,4.2-0.7,8.5,0.5,12.5c0.9,2.9,1.7,6.1,4.9,7.3c3.6,1.6,7.6,1.7,11.1-0.3
		c1.9-1,3.3-0.9,5,0c3.8,1.9,7.5,1.2,10.8-1.2c1.4-1,2.8-1.9,4-3.1c1-0.9,1.7-1,2.9-0.3c5,2.6,10.2,3.1,15.3,0.2
		c2.3-1.4,4.3-1.4,6.8-0.3c4,1.7,7.6,1.2,10.9-1.7c1.2-1,2.3-1.2,3.8-0.3c2.4,1.4,5,1,6.6-0.5c2.3-2.3,3.5-5,4.3-8.2
		c1-4,2.4-7.8,3.6-11.8c0-0.2,0.3-0.3,0.7-0.7c0.9,2.6,1.4,4.9,2.3,7.1c2.4,5.9,8.3,7.5,13.2,3.6c1.4-1.2,2.8-2.4,4-3.6
		c1.9,1.4,3.5,2.9,5.4,3.6c5.2,1.9,10.2,1.7,15.1-1.2c0.7-0.5,1.9-0.9,2.6-0.5c0.2,0.2,0.3,0.2,0.5,0.3
		C-2334.9,46.1-2326.1,48.7-2319.5,47.5z M-2541.7,37.8c-0.2,0.9-0.3,1.9-0.7,2.8c-0.3,0.7-0.9,1.4-1.6,1.6
		c-3.1,0.7-3.6,0.2-2.6-2.9c0.7-2.3,1.4-4.7,2.3-6.9c0.2-0.7,0.5-1.4,1-1.7c0.5-0.5,1.4-0.9,1.9-0.9c0.3,0,0.7,1,1.2,1.6
		C-2540.6,33.2-2541.2,35.5-2541.7,37.8z M-2502.8,59.6c0,1.9,0,3.8-0.2,5.6c-0.2,2.8-0.3,2.9-3.1,3.6c-3.5,0.9-7.1-0.3-8-3.1
		s-0.9-5.6-0.3-8.5c0.9-4.5,4-7.3,7.3-9.9c1.2-0.9,2.8-1,4.5-1.7C-2502.6,50.6-2502.6,55.1-2502.8,59.6z M-2413.5,33.4
		c-0.2,1.9-0.7,4-0.7,5.9c0,3.6,0,7.5,0.2,11.1c0.2,1.7-0.2,3.1-1.7,3.8c-2.4,1-4.9,2.1-7.3,2.3c-2.9,0.2-4.3-1.4-5-4.3
		c-0.2-0.7-0.2-1.2-0.3-1.9c-0.5-6.1,0.5-11.8,4.7-15.8c1-0.9,2.1-1.7,3.5-2.4s3.1-1,4.7-1.2C-2413.7,30.8-2413.1,31.3-2413.5,33.4z
		 M-2339.2,20.9c0,5.6,0.2,10.9,0.3,16.5c0,1.6-0.3,2.6-1.6,3.3c-6.1,4-11.4,0.3-11.6-3.5c-0.7-6.8,0.7-11.4,3.8-15.8
		c1.7-2.3,4.9-3.1,7.5-2.4C-2339.6,19.4-2339.2,19.7-2339.2,20.9z"/>
	<path class="st0" d="M-2447.8,22.3c5.7,1.6,9.7-2.4,9.9-8c0-1.7-0.9-2.3-2.6-2.1c-2.1,0.5-4.2,1.2-6.1,1.7c-2.6,0.7-4,3.1-3.3,5.6
		C-2449.7,20.6-2448.7,22-2447.8,22.3z"/>
</g>
<g>
	<g>
		<path class="st0" d="M-2412.3,92.2c5.7,1.6,9.7-2.4,9.9-8c0-1.7-0.9-2.3-2.6-2.1c-2.1,0.5-4.2,1.2-6.1,1.7c-2.6,0.7-4,3.1-3.3,5.6
			C-2414,90.7-2413.1,92.1-2412.3,92.2z"/>
		<path class="st0" d="M-2333,77c5.7,1.6,9.7-2.4,9.9-8c0-1.7-0.9-2.3-2.6-2.1c-2.1,0.5-4.2,1.2-6.1,1.7c-2.6,0.7-4,3.1-3.3,5.6
			C-2334.7,75.4-2333.9,76.8-2333,77z"/>
		<path class="st0" d="M-2309.2,113c-0.9-4.3-3.6-7.3-6.8-10.2l0,0c-1.2-0.2-1.9,0.7-1.9,0.7c-1.4,2.9-3.1,5.6-6.1,7.1
			c-2.3,1.2-4,0.2-4.2-2.3c-0.2-1.6-0.3-3.3,0-5c0.7-4.2,1.6-8.3,2.4-12.3c1.2-5.6,0.2-6.6-3.6-9.2c-1.2-0.9-2.6-1.2-3.8-1.7
			c-1.7-0.7-2.1-0.5-2.3,1.4c-0.5,2.9-1,5.9-1.4,8.8c-0.5,4.3-1,8.8-1.6,13.2c0,0.5-0.2,1.2,0,1.9c0.9,2.9-0.2,5.4-1.7,7.6
			c-0.9,1.2-2.4,1.2-3.1-0.2c-0.7-1.6-1.4-3.5-1.4-5.2c0-5.2,2.1-10.1,3.6-14.7c1.2-3.5,2.9-6.9,0-10.2c-1.7-2.1-4-3.6-6.1-5.4
			c-0.3-0.3-1.2-0.2-1.6-0.2c-0.7,2.8-1.4,5.2-2.1,7.6c-0.2,0.5-0.9,1.2-1.6,1.4c-2.4,0.7-4.9,1-7.6,1.6c0.3-1.4,0.7-2.3,1-3.5
			c-0.3-0.2-0.9-0.3-1.4-0.5c-3.5-0.3-6.6,0.3-9.7,1.9c-1.9,0.9-2.4,2.1-1.6,3.8c1.2,2.3,2.8,4.5,4.2,6.8c0.3,0.5,0.5,1,0.9,1.6
			c-1.7,13.2-10.2,23.2-10.2,23.2c-5.2,4.2-10.6,0.9-13.5-1.9c-0.3-0.3-1.4-1.7-1.2-5.4l0,0c1.2-0.2,2.3-0.2,3.5-0.2
			c9.5-0.5,14.9-5.4,15.8-14.7c0.7-6.1-4.5-11.3-10.6-10.6c-5,0.5-9.2,2.9-12.1,6.8c-6.1,7.3-8,15.4-4.3,24.5
			c0.2,0.5,0.5,1.2,0.2,1.7c-0.9,2.3-2.3,4-4.3,5.2c-3.5,1.7-5.7,0.3-5.2-3.5c0.7-4.7,1.9-9.5,2.8-14.2c0.3-1.9,1.2-4,1.2-5.9
			c0-3.8-4.2-7.6-8-7.5c-0.5,0-1.4,0.7-1.4,1c-0.5,1.9-0.9,4-1.4,5.9s-1.6,3.6-1.7,5.6c-0.3,4.9-0.3,9.7-0.5,14.6
			c0,1.6-0.5,3.3-1,4.9s-1.7,2.6-3.1,2.3c-1-0.2-2.1-1.4-2.6-2.3c-1.7-3.3-0.7-6.8,0.3-9.9c1-3.6,2.8-7.1,4-10.8
			c2.3-6.6,1.7-9-3.1-12.1c-0.3-0.3-0.9-0.5-1.2-0.7c-1.6-0.9-2.1-0.9-2.8,0.9c-0.5,1-0.7,2.3-1.2,3.3c-1.4,2.4-3.5,4.7-4.5,7.3
			c-2.4,5.9-4.3,12-6.6,17.9c-0.7,1.9-1.6,3.6-2.3,5.6c-0.2,0-0.3-0.2-0.5-0.2c0-0.2,0-0.5,0-0.7c1.4-5,2.6-10.2,4-15.3
			c0.7-2.3,1-4.2,0.2-6.4c-1.4-3.6-4.7-4.7-7.6-6.2c-1-0.5-1.4,0.3-1.4,1c0.2,3.5-1.2,6.8-2.3,10.1c-2.3,6.9-2.8,14.1-2.8,21.2
			c0,2.3-0.9,4.3-1.7,6.4c-0.3,0.7-1.9,1.7-2.4,1.6c-0.9-0.3-1.6-1.6-1.7-2.6c-1-6.2,0.3-12,2.8-17.7c2.9-6.8,0.2-11.8-6.2-14.7
			c-0.7-0.3-1.7-0.7-2.1,0.7c-0.2,0.3-0.9,0.7-1.4,0.7c-2.4,0.2-4.9,0-7.1,0.3c-6.9,1.4-12,5-14.4,12c-0.5,1.2-0.5,2.6-0.9,4
			c-1.4,4-1.2,8-1,12.1c0,1.7-0.3,3.6-0.9,5.4c-0.3,1.2-1.6,2.6-2.9,2.3c-1-0.3-2.1-1.6-2.4-2.8c-0.9-3.5-0.3-6.9,0.7-10.2
			c1.2-4.2,2.6-8.3,3.8-12.7c0.9-3.3,0.2-6.2-2.8-8.2c-1.7-1.2-3.8-1.9-5.9-2.6c-1.7-0.5-2.1-0.2-1.9,1.7c0.2,1.6,0.5,3.3,0,4.7
			c-0.7,2.4-4.2,3.6-7.3,2.6c0.7-1.9,0.5-2.4-1.4-3.1c-0.7-0.2-1.4-0.5-1.9-0.3c-2.9,0.3-5.9,0.9-8.8,1.6c-1.9,2.3,0.2,4.9,0.2,4.9
			c2.8,4.9,2.1,6.6,2.1,6.6c0,2.1-3.3,10.6-3.3,10.6c-0.9,1.9-1,1.7-1,1.7c-1.2,0.2-1.4-1.6-1.4-1.6c-0.3-1.4-0.7-2.8-0.7-4.3
			c0-2.1,0.3-4.2,0.7-6.2c0.2-1.6-0.3-2.1-1.9-1.7c-3.1,0.9-6.2,1.6-9.4,2.6c-2.9,0.9-3.6,1.4-3.3,4.7c0.3,3.6-0.5,6.9-1.6,10.4
			c-2.4,8-7.3,14.1-16,15.4c-6.8,1.2-11.4-0.5-13.7-6.8c-0.9-2.3-1.2-4.7-1-7.1c0.7-7.6,3.8-14.4,7.1-21.2c2.1-4.3,1.2-4.2,6.2-2.9
			c0.5,0.2,1,0.2,1.4,0.3c7.3,1.9,14.2,1.7,21.2-1.4c7.3-3.3,11.4-8.5,11.3-16.8c-0.2-4-2.8-8.8-7.1-10.1
			c-5.9-1.6-11.6-0.7-17.5,0.3c-5.4,0.9-9.9,3.3-13.5,7.3c-2.1,2.3-4,4.9-6.2,7.1c-0.7,0.7-1.7,1.4-2.8,1.4c-4.7,0.7-9.5,1-14.4,1.9
			c-5.6,1-10.8,2.6-15.4,5.9c-1.9,1.4-4.2,2.8-5.4,4.7c-2.8,4.3-2.9,9.4-1.4,14.2c0.2,0.7,0.9,1.6,1.4,1.9c0.3,0.2,1.2-0.5,1.7-1
			c2.3-2.4,4-5.2,6.6-7.1c4.5-3.6,9.2-6.8,14.7-8.3c2.4-0.7,4.9-2.1,7.6-1.4c-0.2,0.7-0.3,1.2-0.5,1.7c-0.9,2.6-1.9,5.2-2.4,7.8
			c-1.7,7.8-3.5,15.4-3.3,23.6c0,6.2,2.1,11.3,7.3,14.9c4.5,2.9,9.7,3.5,14.9,2.9c9-1,16-6.2,21.5-13.2c1.2-1.6,2.4-3.3,3.6-5
			c0.2,0,0.3,0.2,0.7,0.2c-0.2,1.4,0.2,3.1-0.5,4.3c-1.2,2.3-2.6,4.5-4.2,6.6c-4.2,5.7-8.2,11.6-10.6,18.4
			c-1.2,3.1-1.9,6.6-0.9,10.1c0.9,2.8,2.1,5.6,5,6.8c3.6,1.6,7.5,1.2,10.9-0.7c5-2.9,8.3-7.5,11.1-12.3c0.5-1,1-2.1,1.2-3.3
			c1.6-8,1.9-15.8,0.5-23.8c-0.2-1.2,0.2-2.8,0.7-3.8c2.8-6.2,6.2-12,7.6-18.9c0.3-1.7,1-3.5,1.7-5c0.2-0.5,0.7-1,1.2-1.2
			c1.6-0.3,3.1-0.5,4.9-0.7c0,0.3,0,0.7,0,1c-0.2,4-0.5,8-0.5,11.8c0,6.9,6.1,12.3,12.5,10.9c2.1-0.5,4-1.2,5.4-2.9
			c0.9-1,1.7-1.4,3.1-0.3c1.7,1,3.6,1.9,5.6,2.1c4,0.5,7.5-1.2,10.8-2.9c1.4-0.7,2.3-0.7,3.5,0.3c2.1,1.7,4.5,2.4,6.9,1.2
			c2.3-1,4.3-2.6,6.6-3.8c0.5-0.3,1.6-0.5,2.1-0.2c3.1,2.3,6.6,1.6,8.2-2.1c1.6-3.8,2.8-7.8,4.2-11.8c0.9-2.4,1.6-4.9,2.3-7.3
			c0.2,0,0.5,0,0.7,0.2c0.3,2.1,0.2,4.3,0.9,6.2c1.6,4.7,7.3,8.8,12.7,6.4c1.6-0.7,2.9-1.6,4.3-2.4c1.2-0.9,1.9-1,3.3-0.2
			c2.1,1.2,4.3,2.3,7.1,1.7c3.5-0.5,6.2-2.1,8.5-4.7c1.6-1.9,2.9-2.1,5-0.7c0.9,0.7,1.9,1,3.1,1.4l0,0c0,0,10.4,3.8,17.3-3.8
			c4.7-5,8.2-10.8,9.7-17.5c0.7-2.9,1.4-5.9,2.1-8.8c0.5-2.1,2.3-1.7,3.6-1.6c0.7,0,1.6,1.2,1.7,2.1c0.3,1.4,0.2,2.8,0,4.2
			c-0.3,4.7,0,9.2,2.3,13.2c1.2,2.1,2.8,3.8,5.2,4.3c2.8,0.5,5.4-0.2,7.8-1.6c1.7-1,3.1-2.4,4.7-3.6c3.8,3.8,8.5,3.1,13,3.1
			c-0.2,0.7-0.3,1.4-0.5,1.9c-2.3,5-5.2,9.2-9.5,12.8c-4.7,3.8-9.7,6.8-15.1,9.2c-4.5,2.1-9.2,2.8-14.1,3.5
			c-4.3,0.7-8.8,1.6-13.2,1.7c-8.3,0.2-16.7-0.2-25-0.3c-8.5-0.2-17-0.9-25.3,0.3c-8.7,1.2-17.5,2.1-26.2,3.5
			c-6.2,1-12.1,2.6-18.4,3.8c-9.4,1.9-18.6,4.2-27.2,8.2c-4.7,2.1-9,4.9-12.7,8.7c-1.7,1.9-3.1,4-4.9,5.9c-2.8,3.1-5.7,6.4-8.5,9.5
			c-0.5,0.5-1,1.6-0.9,1.7c0.5,0.7,1.4,1.7,2.3,1.9c2.3,0.3,4.5,0.3,6.6,0c5.2-0.7,9.4-3.5,13.4-6.9c1.7-1.6,3.3-3.6,5.2-5
			c5.9-4.2,12.5-7.6,19.3-10.2c5.2-1.9,10.4-3.6,15.6-5.4c4.2-1.4,8.5-2.8,12.8-3.3c8.2-1.2,16.3-1.9,24.3-2.9
			c2.1-0.2,4.2-0.3,6.2-0.3c12.7,0.5,25.2,1.2,37.6,1.9c8.3,0.5,16.7,0.2,24.6-2.3c7.3-2.1,14.2-4.9,20.8-8.7
			c5.6-3.1,11.1-6.1,14.7-11.4c2.4-3.5,5-7.1,6.9-10.9C-2309.2,122.6-2308.4,117.9-2309.2,113z M-2385.2,98.5c0.7-0.3,1.6,0,2.4-0.2
			c0,0.7,0.2,1.6-0.2,2.3c-1.7,3.3-4.2,5.6-8.3,5.9C-2390.4,103-2388.8,99.9-2385.2,98.5z M-2547.9,103.3c3.3-0.7,6.6-0.9,9.9-0.9
			c1.2,0,2.9,0.3,2.9,1.9c0,1.2-1,2.3-1.7,3.3c-0.2,0.3-0.7,0.3-1,0.5c-5.7,1.7-11.4,1.7-17.7,0.2
			C-2553.1,105.9-2550.9,104-2547.9,103.3z M-2531.3,177.7c-0.5,1.9-1.2,3.6-2.1,5.4c-0.3,0.7-1.2,1-1.9,1.4
			c-0.2-0.7-0.9-1.4-0.7-2.1c0.9-3.6,2.1-7.3,3.1-10.9c0.2-0.5,0.9-1,1.4-0.9c0.3,0,0.9,0.7,1.2,1
			C-2530.6,173.8-2530.7,175.8-2531.3,177.7z M-2467.6,119.1c-0.3,4.3-0.7,8.7-1.2,13c0,0.7,0,1.6,0,2.3c-0.3,3.3-2.4,5.2-5.9,5.7
			c-2.6,0.3-4.3-0.7-5.2-3.1c-2.6-6.9-0.5-15.1,5.7-18.6c1.6-0.9,3.6-1,5.6-1.2C-2468.3,117.2-2467.6,118.4-2467.6,119.1z"/>
	</g>
	<path class="st0" d="M-2415.6,102.3c0,0-2.1,19.6-2.6,21.9s-2.8-1-2.8-1l1.7-15.3L-2415.6,102.3z"/>
</g>
<rect x="-1772.3" y="-285.4" class="st2" width="133.7" height="128.4"/>
<rect x="-1548.6" y="682.4" class="st0" width="468.4" height="281"/>
<rect x="-1312.5" y="758.2" class="st4" width="295.1" height="38.7"/>
<text transform="matrix(1 0 0 1 -1312.4636 778.7847)" class="st2" style="font-family:'Oswald'; font-size:23.5471px;">ADRIANA GRANIERI    </text>
<circle class="st1" cx="-1427" cy="821.3" r="63.7"/>
<text transform="matrix(1 0 0 1 -1312.4636 801.0364)" class="st1" style="font-family:'Oswald-Light'; font-size:14.4904px;">GRAPHIC DESIGNER</text>
<text transform="matrix(1 0 0 1 -1312.4636 801.0364)" class="st6" style="font-family:'Oswald-Light'; font-size:14.4904px;">GRAPHIC DESIGNER</text>
<g>
	<text transform="matrix(1 0 0 1 -1312.4636 842.7748)" class="st1" style="font-family:'Oswald-Light'; font-size:14.4904px;">a.granie</text>
	
		<text transform="matrix(1 0 0 1 -1312.4636 842.7748)" style="fill:none;stroke:#414143;stroke-width:0.1;stroke-miterlimit:10; font-family:'Oswald-Light'; font-size:14.4904px;">a.granie</text>
	<text transform="matrix(1 0 0 1 -1272.2188 842.7748)" class="st1" style="font-family:'Oswald-Light'; font-size:14.4904px;">ri@</text>
	
		<text transform="matrix(1 0 0 1 -1272.2188 842.7748)" style="fill:none;stroke:#414143;stroke-width:0.1;stroke-miterlimit:10; font-family:'Oswald-Light'; font-size:14.4904px;">ri@</text>
	<text transform="matrix(1 0 0 1 -1254.6982 842.7748)" class="st1" style="font-family:'Oswald-Light'; font-size:14.4904px;">h</text>
	
		<text transform="matrix(1 0 0 1 -1254.6982 842.7748)" style="fill:none;stroke:#414143;stroke-width:0.1;stroke-miterlimit:10; font-family:'Oswald-Light'; font-size:14.4904px;">h</text>
	<text transform="matrix(1 0 0 1 -1248.4537 842.7748)" class="st1" style="font-family:'Oswald-Light'; font-size:14.4904px;">otmail.com</text>
	
		<text transform="matrix(1 0 0 1 -1248.4537 842.7748)" style="fill:none;stroke:#414143;stroke-width:0.1;stroke-miterlimit:10; font-family:'Oswald-Light'; font-size:14.4904px;">otmail.com</text>
</g>
<g>
	<text transform="matrix(1 0 0 1 -1312.4636 863.6041)" class="st1" style="font-family:'Oswald-Light'; font-size:14.4904px;">cell: 613.513.3722</text>
	
		<text transform="matrix(1 0 0 1 -1312.4636 863.6041)" style="fill:none;stroke:#414143;stroke-width:0.1;stroke-miterlimit:10; font-family:'Oswald-Light'; font-size:14.4904px;">cell: 613.513.3722</text>
</g>
<g>
	<text transform="matrix(1 0 0 1 -1312.4636 883.2261)" class="st1" style="font-family:'Oswald-Light'; font-size:14.4904px;">behance.ne</text>
	
		<text transform="matrix(1 0 0 1 -1312.4636 883.2261)" style="fill:none;stroke:#414143;stroke-width:0.1;stroke-miterlimit:10; font-family:'Oswald-Light'; font-size:14.4904px;">behance.ne</text>
	<text transform="matrix(1 0 0 1 -1255.2189 883.2261)" class="st1" style="font-family:'Oswald-Light'; font-size:14.4904px;">t</text>
	
		<text transform="matrix(1 0 0 1 -1255.2189 883.2261)" style="fill:none;stroke:#414143;stroke-width:0.1;stroke-miterlimit:10; font-family:'Oswald-Light'; font-size:14.4904px;">t</text>
	<text transform="matrix(1 0 0 1 -1250.7087 883.2261)" class="st1" style="font-family:'Oswald-Light'; font-size:14.4904px;">/</text>
	
		<text transform="matrix(1 0 0 1 -1250.7087 883.2261)" style="fill:none;stroke:#414143;stroke-width:0.1;stroke-miterlimit:10; font-family:'Oswald-Light'; font-size:14.4904px;">/</text>
	<text transform="matrix(1 0 0 1 -1246.1981 883.2261)" class="st1" style="font-family:'Oswald-Light'; font-size:14.4904px;">agranieri</text>
	
		<text transform="matrix(1 0 0 1 -1246.1981 883.2261)" style="fill:none;stroke:#414143;stroke-width:0.1;stroke-miterlimit:10; font-family:'Oswald-Light'; font-size:14.4904px;">agranieri</text>
</g>
<g>
	<path class="st4" d="M-1394.2,794.4c-0.9-0.2-2.1,0.3-2.9,0.9c-0.9,0.5-1.4,1.4-1.9,2.4c-1.6,3.1-2.9,6.4-4.5,9.5
		c-1.9,4.2-1.6,4.9,3.1,4.7c0.9,0,1.9-1,2.4-1.9c0.7-1.2,1-2.6,1.4-4c1.2-2.9,2.3-6.1,3.6-9.4
		C-1393.3,796-1393.5,794.6-1394.2,794.4z"/>
	<path class="st0" d="M-1371.4,861l-3.1-3.8c0,0-5.9,6.1-13-0.7c-0.3-0.5-0.7-1-1-1.6c-3.5-7.3-4.2-14.9-2.9-22.7
		c0.3-2.1,1.2-3.3,3.6-3.8c5.6-1.2,11.8-8.3,12.3-13.7c0.2-2.4-0.7-3.5-3.1-3.5c-1.4,0-2.8,0.2-4.2,0.2c-2.1,0-2.6-1-1.9-2.9
		c0.9-2.4,1.7-4.9,2.8-7.3c2.3-5.6,4.7-10.9,6.9-16.5c2.3-5.4,0-11.6-4.7-12.8c-5.7-1.6-11.4-1.4-16.7,1.4
		c-9.9,5.2-16.7,13.5-21.2,23.4c-3.6,7.8-6.1,16.3-9.5,24.3c-3.6,8.5-7.5,16.8-12,25c-1.9,3.6-5,7.1-8.5,9.2c-7.6,4.9-16,5-24.6,2.4
		c-8.5-2.6-14.9-7.3-20.8-13.5c-2.9-3.1-6.1-5.9-9.5-8.7c-3.1-2.4-6.8-1-7.3,2.9c-0.5,3.5-0.9,6.9-0.5,10.2c0.5,3.6,1,7.8,3.1,10.8
		c2.6,3.6,6.8,6.4,10.4,9c8.5,6.1,18,9,28.3,10.1c3.5,0.3,7.3,0.9,10.6,0.2c2.9-0.7,5.7-1.6,8.5-2.8l0,0c0,0,16.8-4,33.1-37.6l0,0
		c0.9-1.9,1.7-3.8,2.6-5.7c2.1-5.4,2.3-5.4,8.2-4.2c0.3,0,0.5,0.2,0.9,0.2c1.7,0.2,2.1,1,1.9,2.6c-0.3,3.5-0.7,7.1-0.9,10.6
		c-0.7,8.7,0.3,16.5,7.6,22.6c5.2,4.2,10.6,7.3,17.3,4.5c2.1-0.9,4-1.9,5.9-3.1l-1-3.1L-1371.4,861z M-1396.4,806.2
		c-0.5,1.4-0.7,2.8-1.4,4c-0.5,0.9-1.6,1.9-2.4,1.9c-4.7,0.3-5-0.5-3.1-4.7c1.6-3.1,2.9-6.4,4.5-9.5c0.3-0.9,1-1.7,1.9-2.4
		c0.9-0.5,2.1-1,2.9-0.9c0.5,0.2,0.9,1.6,1.4,2.4C-1394,800.2-1395.2,803.1-1396.4,806.2z"/>
</g>
<path class="st0" d="M-1386.5,857.4c0,0-2.3-2.1-4-7.5l-1.9-0.3c0,0,0.2,5.4,0.3,5.6c0,0.2,2.1,4.7,2.4,5c0.3,0.2,2.9-0.3,2.9-0.3
	L-1386.5,857.4z"/>
<g>
	<path class="st4" d="M-1284.7,41.4c-1.6,0-3.3,0.3-4.7,1.2c-1.4,0.7-2.4,1.6-3.5,2.4c-4.2,4-5.2,9.7-4.7,15.8
		c0.2,0.7,0.2,1.2,0.3,1.9c0.7,2.9,2.1,4.5,5,4.3c2.4-0.2,4.9-1.4,7.3-2.3c1.6-0.7,1.7-2.1,1.7-3.8c-0.2-3.6-0.3-7.3-0.2-11.1
		c0-1.9,0.5-4,0.7-5.9C-1282.3,41.9-1282.6,41.2-1284.7,41.4z"/>
	<path class="st4" d="M-1383.4,67.8c-0.5,2.9-0.5,5.7,0.3,8.5s4.5,4,8,3.1c2.6-0.7,2.9-0.9,3.1-3.6c0.2-1.9,0.2-3.8,0.2-5.6
		c0.2-4.5,0.3-8.8,0.3-13.9c-1.7,0.7-3.5,0.9-4.5,1.7C-1379.4,60.5-1382.4,63.3-1383.4,67.8z"/>
	<path class="st4" d="M-1410.1,39.8c-0.7,0-1.4,0.3-1.9,0.9c-0.5,0.5-0.9,1.2-1,1.7c-0.7,2.3-1.4,4.7-2.3,6.9
		c-1,2.9-0.7,3.5,2.6,2.9c0.5-0.2,1.2-0.9,1.6-1.6c0.3-0.9,0.5-1.9,0.7-2.8c0.5-2.3,1-4.3,1.6-6.8
		C-1409.4,40.9-1409.8,39.8-1410.1,39.8z"/>
	<path class="st4" d="M-1209.6,29.4c-2.6-0.7-5.9,0.2-7.5,2.4c-3.1,4.2-4.5,9-3.8,15.8c0.2,3.8,5.6,7.5,11.6,3.5
		c1.2-0.7,1.6-1.7,1.6-3.3c-0.2-5.6-0.3-10.9-0.3-16.5C-1208.2,30.1-1208.6,29.8-1209.6,29.4z"/>
	<path class="st0" d="M-1183.4,43.1c-0.7-0.7-1.4-1.4-2.1-2.1c-1.2-0.2-1.9,0.7-1.9,0.7c-1,2.1-2.1,4-3.8,5.4c-1.2,0.7-2.8,0.5-4,0
		c-1.7-0.7-2.1-2.4-2.1-4c-0.2-3.3-0.2-6.4,1-9.5c0.9-2.3,1.7-4.7,2.4-6.9c0.7-2.4,0.9-4.9-1-6.8c-1-1-2.4-1.6-3.5-2.3
		c-2.3-1.4-4.9-0.9-6.1,1.4c-5.6-1-10.9-0.2-16,2.4c-4,2.1-7.3,4.9-9,9.2c-1.9,4.9-1.9,9.7-1,14.7c0.5,2.6-0.5,5.2-2.8,6.1
		c-1.4,0.5-2.6,0.5-3.5-1.2c-1.2-2.6-0.7-5.2-0.2-7.6c1.2-4.5,2.6-8.8,4-13.2c0.9-2.9,0.5-5.7-2.1-7.6c-1.4-1-2.8-1.7-4.2-2.8
		c-1.4-0.9-1.9-0.2-2.4,1c-1.4,3.5-2.9,6.8-4.3,10.1c-2.4,5.6-5.7,10.6-7.3,16.5c-0.7,2.9-2.3,5.6-3.5,8.3c-0.2,0-0.2,0-0.3,0
		c0-0.3-0.2-0.7,0-1c0.9-4,1.7-8,2.6-12c0.5-2.1,1.4-4,1.7-5.9c1-5.2-1.4-9.4-6.4-10.8c-1-0.3-1.7-0.3-2.1,0.9
		c-2.4,8.8-4.9,17.9-5.2,27.1c-0.2,3.1,0,6.6-2.4,9.2c-0.5,0.5-1.6,1.4-1.9,1.2c-0.7-0.3-1.4-1.2-1.7-2.1c-0.3-0.7-0.2-1.6-0.2-2.3
		c0.2-6.8,2.3-13.2,4-19.8c0.5-2.1,0.9-4.3-0.7-5.9c-1.7-1.9-4-3.3-6.2-4.9c-1.6-1-2.4-0.2-3.3,1.2c-0.3,0.5-0.9,1-1.6,1.2
		c-2.6,0.5-5.4,0.5-8,1c-6.2,1.4-11.1,4.9-14.1,10.8c-2.6,5.6-2.6,11.3-2.4,17.2c0.2,3.6-1.7,7.1-5,8.7c-1.7,0.9-2.8,0.5-3.1-1.4
		c-0.3-1.6-0.5-3.3-0.5-5c0.3-5,1.7-9.7,3.5-14.6c0.5-1.7,1.2-3.5,1-5.2c-0.3-4.3-1.6-5.9-7.6-7.5c-1.4-0.3-2.1,0-2.4,1.4
		c-1,6.1-2.3,12.3-3.3,18.4c-0.5,4-0.7,8.2-1,12.1c-0.2,1.6-1.9,3.1-3.3,3.1s-2.8-1.4-2.6-3.1c0-2.3,0-4.7,0.7-6.9
		c1-3.8,2.8-7.6,4-11.4c0.7-2.1,1-4.3,1.2-6.4c0.2-3.5-2.8-6.9-6.1-7.6c-2.1-0.3-2.6,0-2.4,2.1c0.2,3.1-1.2,5.2-4,6.1
		c-1.7,0.5-3.6,0.5-5.6,0.9c-1.6,0.2-2.3-0.3-1.6-2.1c0.7-1.4,0-2.3-1.4-2.1c-2.4,0.2-4.9,0.3-7.3,0.9c-2.3,0.3-3.3,1.9-2.8,4.2
		c0.3,1.7,1,3.5,1.6,5.2c0.5,1.4,1.4,2.9,1.4,4.3c0,3.3-0.3,6.4-0.9,9.7c-0.7,4.2-2.8,7.6-5.6,10.8c-1.4,1.4-2.4,1.2-2.9-0.7
		c-0.5-1.7-1-3.6-0.9-5.4c0.5-5.9,1.2-11.8,1.9-17.9c0.7-5.6,2.6-10.6,5.2-15.3c2.1-3.8,2.8-6.9,0-9.9c-1.2-1.2-2.9-2.1-4.5-2.9
		c-3.1-1.7-4.5-1-5,2.4c0,0.2,0,0.5-0.2,0.7c-1.2,5.9-2.6,11.6-3.8,17.5c-0.3,2.1-1.6,2.9-3.6,2.9c-5.6,0-9.7,2.8-13,6.8
		c-5.9,7.3-8.3,15.6-5.4,25c0.3,1-0.2,2.6-0.9,3.5c-2.3,2.9-7.6,2.8-9.7-0.5c-3.1-4.7-4.2-9.9-4-15.4c0-1.6,0.5-2.4,2.3-2.9
		c3.8-1.4,7.3-6.8,7.3-10.6c0-1.7-0.7-2.4-2.4-2.1c-1,0.2-1.9,0.3-2.9,0.5c-1.4,0.2-1.9-0.5-1.6-1.9c0.3-1.7,0.7-3.6,1.2-5.4
		c1-4,2.3-8,3.3-12s-1-8-4.5-8.5c-4-0.5-8,0.2-11.3,2.4c-6.4,4.5-10.2,10.8-12.5,18c-1.7,5.7-2.8,11.8-4.3,17.5
		c-1.6,5.2-3.1,10.4-5,15.6c-1,2.8-3.3,7.5-6.6,10.2c-4.7,3.6-10.2,4.5-16.3,3.5c-6.1-1-10.9-3.6-15.6-7.5c-2.3-1.9-4.9-3.6-7.3-5
		c-2.3-1.4-4.7-0.2-4.7,2.6c0,2.4,0,4.9,0.5,7.1c0.7,2.4,1.4,5.4,3.1,7.1c2.3,2.3,5.2,3.8,8,5.4c4.3,2.4,9,3.6,13.9,4.2l0,0l2.8,0.3
		c3.3,0.3,6.2,0.2,8.8-0.3c0.3,0,0.9-0.2,1.2-0.2c0.2,0,0.5-0.2,0.7-0.2s0.2,0,0.3-0.2l0,0c3.3-1,5.6-2.4,6.9-3.3l0,0
		c0,0,4.7-3.1,7.3-7.3l0,0c5.6-7.5,9.2-16.7,9.2-16.7l0,0c1.2-2.8,2.1-5.6,2.9-8.5c0.9-3.8,1-3.8,5.2-3.6c0.2,0,0.3,0,0.5,0
		c1.2,0,1.6,0.5,1.6,1.7c0,2.4,0.2,4.9,0.3,7.5c0.3,5.9,1.7,11.4,7.3,14.9c4,2.4,8,4.2,12.3,1.6c1.7-0.9,3.3-2.1,4.7-3.5
		c1-1,1.9-1,3.3-0.7c3.1,0.7,6.2,1.4,9.4,1.6c2.1,0,4.5-0.7,5.9-1.9c2.3-1.9,4.3-2.3,7.1-1.9c3.5,0.3,6.6-0.7,8.8-3.8
		c4.2-5.7,6.2-12.3,7.8-18.9c1.7-7.1,0.7-5.7,7.5-6.4c0.2,0,0.2,0,0.5,0.2c0,0.5,0,1.2-0.2,1.7c-1,4.2-0.7,8.5,0.5,12.5
		c0.9,2.9,1.7,6.1,4.9,7.3c3.6,1.6,7.6,1.7,11.1-0.3c1.9-1,3.3-0.9,5,0c3.8,1.9,7.5,1.2,10.8-1.2c1.4-1,2.8-1.9,4-3.1
		c1-0.9,1.7-1,2.9-0.3c5,2.6,10.2,3.1,15.3,0.2c2.3-1.4,4.3-1.4,6.8-0.3c4,1.7,7.6,1.2,10.9-1.7c1.2-1,2.3-1.2,3.8-0.3
		c2.4,1.4,5,1,6.6-0.5c2.3-2.3,3.5-5,4.3-8.2c1-4,2.4-7.8,3.6-11.8c0-0.2,0.3-0.3,0.7-0.7c0.9,2.6,1.4,4.9,2.3,7.1
		c2.4,5.9,8.3,7.5,13.2,3.6c1.4-1.2,2.8-2.4,4-3.6c1.9,1.4,3.5,2.9,5.4,3.6c5.2,1.9,10.2,1.7,15.1-1.2c0.7-0.5,1.9-0.9,2.6-0.5
		c0.2,0.2,0.3,0.2,0.5,0.3c0,0,8.7,2.8,15.3,1.6c3.3-0.9,4.9-2.1,5-2.4l0,0C-1179.1,49.6-1183.1,43.5-1183.4,43.1z M-1410.7,48.2
		c-0.2,0.9-0.3,1.9-0.7,2.8c-0.3,0.7-0.9,1.4-1.6,1.6c-3.1,0.7-3.6,0.2-2.6-2.9c0.7-2.3,1.4-4.7,2.3-6.9c0.2-0.7,0.5-1.4,1-1.7
		c0.5-0.5,1.4-0.9,1.9-0.9c0.3,0,0.7,1,1.2,1.6C-1409.6,43.8-1410.1,45.9-1410.7,48.2z M-1371.8,70c0,1.9,0,3.8-0.2,5.6
		c-0.2,2.8-0.3,2.9-3.1,3.6c-3.5,0.9-7.1-0.3-8-3.1s-0.9-5.6-0.3-8.5c0.9-4.5,4-7.3,7.3-9.9c1.2-0.9,2.8-1,4.5-1.7
		C-1371.6,61.2-1371.8,65.5-1371.8,70z M-1282.5,44c-0.2,1.9-0.7,4-0.7,5.9c0,3.6,0,7.5,0.2,11.1c0.2,1.7-0.2,3.1-1.7,3.8
		c-2.4,1-4.9,2.1-7.3,2.3c-2.9,0.2-4.3-1.4-5-4.3c-0.2-0.7-0.2-1.2-0.3-1.9c-0.5-6.1,0.5-11.8,4.7-15.8c1-0.9,2.1-1.7,3.5-2.4
		s3.1-1,4.7-1.2C-1282.6,41.2-1282.3,41.9-1282.5,44z M-1209.4,51.1c-6.1,4-11.4,0.3-11.6-3.5c-0.7-6.8,0.7-11.4,3.8-15.8
		c1.7-2.3,4.9-3.1,7.5-2.4c1,0.3,1.4,0.5,1.4,1.9c0,5.6,0.2,10.9,0.3,16.5C-1207.7,49.4-1208.2,50.4-1209.4,51.1z"/>
	<path class="st0" d="M-1316.8,32.7c5.7,1.6,9.7-2.4,9.9-8c0-1.7-0.9-2.3-2.6-2.1c-2.1,0.5-4.2,1.2-6.1,1.7c-2.6,0.7-4,3.1-3.3,5.6
		C-1318.7,31.2-1317.8,32.4-1316.8,32.7z"/>
</g>
<rect x="-1017.4" y="703.9" class="st1" width="468.4" height="42.8"/>
<rect x="-1548.6" y="344.8" class="st0" width="468.4" height="281"/>
<rect x="-1312.5" y="420.4" class="st4" width="295.1" height="38.7"/>
<text transform="matrix(1 0 0 1 -1312.4636 441.0984)" class="st2" style="font-family:'Oswald'; font-size:23.5471px;">ADRIANA GRANIERI    </text>
<circle class="st2" cx="-1427" cy="483.6" r="63.7"/>
<text transform="matrix(1 0 0 1 -1312.4636 463.3492)" class="st1" style="font-family:'Oswald-Light'; font-size:14.4904px;">GRAPHIC DESIGNER</text>
<text transform="matrix(1 0 0 1 -1312.4636 463.3492)" class="st6" style="font-family:'Oswald-Light'; font-size:14.4904px;">GRAPHIC DESIGNER</text>
<g>
	<text transform="matrix(1 0 0 1 -1312.4636 505.0875)" class="st1" style="font-family:'Oswald-Light'; font-size:14.4904px;">a.granie</text>
	
		<text transform="matrix(1 0 0 1 -1312.4636 505.0875)" style="fill:none;stroke:#414143;stroke-width:0.1;stroke-miterlimit:10; font-family:'Oswald-Light'; font-size:14.4904px;">a.granie</text>
	<text transform="matrix(1 0 0 1 -1272.2181 505.0875)" class="st1" style="font-family:'Oswald-Light'; font-size:14.4904px;">ri@</text>
	
		<text transform="matrix(1 0 0 1 -1272.2181 505.0875)" style="fill:none;stroke:#414143;stroke-width:0.1;stroke-miterlimit:10; font-family:'Oswald-Light'; font-size:14.4904px;">ri@</text>
	<text transform="matrix(1 0 0 1 -1254.6982 505.0875)" class="st1" style="font-family:'Oswald-Light'; font-size:14.4904px;">h</text>
	
		<text transform="matrix(1 0 0 1 -1254.6982 505.0875)" style="fill:none;stroke:#414143;stroke-width:0.1;stroke-miterlimit:10; font-family:'Oswald-Light'; font-size:14.4904px;">h</text>
	<text transform="matrix(1 0 0 1 -1248.4531 505.0875)" class="st1" style="font-family:'Oswald-Light'; font-size:14.4904px;">otmail.com</text>
	
		<text transform="matrix(1 0 0 1 -1248.4531 505.0875)" style="fill:none;stroke:#414143;stroke-width:0.1;stroke-miterlimit:10; font-family:'Oswald-Light'; font-size:14.4904px;">otmail.com</text>
</g>
<g>
	<text transform="matrix(1 0 0 1 -1312.4636 525.9174)" class="st1" style="font-family:'Oswald-Light'; font-size:14.4904px;">cell: 613.513.3722</text>
	
		<text transform="matrix(1 0 0 1 -1312.4636 525.9174)" style="fill:none;stroke:#414143;stroke-width:0.1;stroke-miterlimit:10; font-family:'Oswald-Light'; font-size:14.4904px;">cell: 613.513.3722</text>
</g>
<g>
	<text transform="matrix(1 0 0 1 -1312.4636 545.5385)" class="st1" style="font-family:'Oswald-Light'; font-size:14.4904px;">behance.ne</text>
	
		<text transform="matrix(1 0 0 1 -1312.4636 545.5385)" style="fill:none;stroke:#414143;stroke-width:0.1;stroke-miterlimit:10; font-family:'Oswald-Light'; font-size:14.4904px;">behance.ne</text>
	<text transform="matrix(1 0 0 1 -1255.2183 545.5385)" class="st1" style="font-family:'Oswald-Light'; font-size:14.4904px;">t</text>
	
		<text transform="matrix(1 0 0 1 -1255.2183 545.5385)" style="fill:none;stroke:#414143;stroke-width:0.1;stroke-miterlimit:10; font-family:'Oswald-Light'; font-size:14.4904px;">t</text>
	<text transform="matrix(1 0 0 1 -1250.7087 545.5385)" class="st1" style="font-family:'Oswald-Light'; font-size:14.4904px;">/</text>
	
		<text transform="matrix(1 0 0 1 -1250.7087 545.5385)" style="fill:none;stroke:#414143;stroke-width:0.1;stroke-miterlimit:10; font-family:'Oswald-Light'; font-size:14.4904px;">/</text>
	<text transform="matrix(1 0 0 1 -1246.1981 545.5385)" class="st1" style="font-family:'Oswald-Light'; font-size:14.4904px;">agranieri</text>
	
		<text transform="matrix(1 0 0 1 -1246.1981 545.5385)" style="fill:none;stroke:#414143;stroke-width:0.1;stroke-miterlimit:10; font-family:'Oswald-Light'; font-size:14.4904px;">agranieri</text>
</g>
<g>
	<path class="st4" d="M-1394.2,456.7c-0.9-0.2-2.1,0.3-2.9,0.9c-0.9,0.5-1.4,1.4-1.9,2.4c-1.6,3.1-2.9,6.4-4.5,9.5
		c-1.9,4.2-1.6,4.9,3.1,4.7c0.9,0,1.9-1,2.4-1.9c0.7-1.2,1-2.6,1.4-4c1.2-2.9,2.3-6.1,3.6-9.4
		C-1393.3,458.2-1393.5,456.9-1394.2,456.7z"/>
	<path class="st0" d="M-1371.4,523.3l-3.1-3.8c0,0-5.9,6.1-13-0.7c-0.3-0.5-0.7-1-1-1.6c-3.5-7.3-4.2-14.9-2.9-22.7
		c0.3-2.1,1.2-3.3,3.6-3.8c5.6-1.2,11.8-8.3,12.3-13.7c0.2-2.4-0.7-3.5-3.1-3.5c-1.4,0-2.8,0.2-4.2,0.2c-2.1,0-2.6-1-1.9-2.9
		c0.9-2.4,1.7-4.9,2.8-7.3c2.3-5.6,4.7-10.9,6.9-16.5c2.3-5.4,0-11.6-4.7-12.8c-5.7-1.6-11.4-1.4-16.7,1.4
		c-9.9,5.2-16.7,13.5-21.2,23.4c-3.6,7.8-6.1,16.3-9.5,24.3c-3.6,8.5-7.5,16.8-12,25c-1.9,3.6-5,7.1-8.5,9.2c-7.6,4.9-16,5-24.6,2.4
		c-8.5-2.6-14.9-7.3-20.8-13.5c-2.9-3.1-6.1-5.9-9.5-8.7c-3.1-2.4-6.8-1-7.3,2.9c-0.5,3.5-0.9,6.9-0.5,10.2c0.5,3.6,1,7.8,3.1,10.8
		c2.6,3.6,6.8,6.4,10.4,9c8.5,6.1,18,9,28.3,10.1c3.5,0.3,7.3,0.9,10.6,0.2c2.9-0.7,5.7-1.6,8.5-2.8l0,0c0,0,16.8-4,33.1-37.6l0,0
		c0.9-1.9,1.7-3.8,2.6-5.7c2.1-5.4,2.3-5.4,8.2-4.2c0.3,0,0.5,0.2,0.9,0.2c1.7,0.2,2.1,1,1.9,2.6c-0.3,3.5-0.7,7.1-0.9,10.6
		c-0.7,8.7,0.3,16.5,7.6,22.6c5.2,4.2,10.6,7.3,17.3,4.5c2.1-0.9,4-1.9,5.9-3.1l-1-3.1L-1371.4,523.3z M-1396.4,468.5
		c-0.5,1.4-0.7,2.8-1.4,4c-0.5,0.9-1.6,1.9-2.4,1.9c-4.7,0.3-5-0.5-3.1-4.7c1.6-3.1,2.9-6.4,4.5-9.5c0.3-0.9,1-1.7,1.9-2.4
		c0.9-0.5,2.1-1,2.9-0.9c0.5,0.2,0.9,1.6,1.4,2.4C-1394,462.4-1395.2,465.4-1396.4,468.5z"/>
</g>
<path class="st0" d="M-1386.5,519.8c0,0-2.3-2.1-4-7.5l-1.9-0.3c0,0,0.2,5.4,0.3,5.6c0,0.2,2.1,4.7,2.4,5c0.3,0.2,2.9-0.3,2.9-0.3
	L-1386.5,519.8z"/>
<g>
	<path class="st3" d="M142.9,112.5c2.4,0.8,4.9,1.9,7.4,3.4c0.9,0.5,1.6,0.9,2.3,1.2c0.7,0.3,1.2,0.5,1.7,0.5c0.7,0,1.3-0.4,1.7-1.2
		c0.4-0.8,0.7-2.1,0.9-4h2.7c-0.4,5.3-0.6,14.2-0.6,26.9h-2.7c-0.3-4.2-1.3-8.3-2.9-12.2c-1.6-3.9-3.9-7-6.8-9.4
		c-2.9-2.4-6.4-3.6-10.3-3.6c-3.9,0-7,1.1-9.4,3.2c-2.4,2.2-3.6,5.1-3.6,8.8c0,2.8,0.6,5.2,1.8,7.2c1.2,2,2.8,3.9,5,5.6
		c2.1,1.7,5.4,4,9.8,6.9l3.8,2.6c4.6,3.1,8.3,5.7,11,8c2.7,2.3,4.9,4.9,6.5,8c1.7,3,2.5,6.5,2.5,10.6c0,5-1.3,9.3-3.9,12.7
		c-2.6,3.4-6.1,6-10.6,7.7c-4.4,1.7-9.4,2.6-14.8,2.6c-4.4,0-8.1-0.4-11-1.2c-2.9-0.8-5.6-1.8-8-3.2c-1.7-1.1-3.1-1.7-4-1.7
		c-0.7,0-1.3,0.4-1.7,1.2c-0.4,0.8-0.7,2.1-0.9,4h-2.7c0.3-5,0.5-15.6,0.5-31.9h2.7c0.5,8.8,2.5,16,5.9,21.4
		c3.4,5.5,8.6,8.2,15.6,8.2c4.2,0,7.7-1.1,10.5-3.4c2.8-2.3,4.1-5.5,4.1-9.8c0-4.4-1.4-8.2-4.2-11.3c-2.8-3.1-7.3-6.7-13.5-10.6
		c-4.7-3.1-8.5-5.7-11.3-8c-2.8-2.3-5.2-5-7-8.1c-1.8-3.1-2.7-6.7-2.7-10.8c0-4.7,1.2-8.7,3.6-12c2.4-3.3,5.6-5.7,9.6-7.3
		c4-1.6,8.4-2.4,13.2-2.4C137.2,111.3,140.5,111.7,142.9,112.5z"/>
	<path class="st3" d="M242.5,116.3c6.3,3.4,11.1,8.3,14.6,14.7c3.5,6.4,5.2,14.1,5.2,23c0,8.7-1.8,16.3-5.3,23
		c-3.5,6.7-8.5,11.9-14.8,15.6c-6.3,3.7-13.6,5.5-21.7,5.5c-8.3,0-15.6-1.7-21.9-5.1c-6.3-3.4-11.1-8.3-14.6-14.7
		c-3.5-6.4-5.2-14.1-5.2-23c0-8.7,1.8-16.3,5.3-23c3.5-6.7,8.5-11.9,14.8-15.6c6.3-3.7,13.5-5.5,21.7-5.5
		C228.9,111.2,236.2,112.9,242.5,116.3z M208.6,118.6c-3.3,3.5-5.8,8.4-7.6,14.7c-1.8,6.3-2.7,13.5-2.7,21.6c0,8.2,1,15.4,3,21.6
		c2,6.2,4.7,11,8.1,14.4c3.4,3.4,7.2,5.1,11.4,5.1c4.3,0,8.1-1.7,11.4-5.3c3.3-3.5,5.8-8.4,7.6-14.7c1.8-6.3,2.7-13.5,2.7-21.6
		c0-8.2-1-15.4-3-21.6c-2-6.2-4.7-11-8.1-14.4c-3.4-3.4-7.2-5.1-11.4-5.1C215.8,113.3,212,115.1,208.6,118.6z"/>
	<path class="st3" d="M353.3,115.2c-2.6,0.4-4.5,1.1-5.7,2c-1.2,0.9-2,2.4-2.5,4.5c-0.4,2-0.6,5.1-0.6,9.1v65.8l-2.8-0.1l-3.2,0.1
		l-51.2-64.9v45.3c0,4.6,0.2,8,0.7,10.2c0.5,2.2,1.5,3.7,3.1,4.7c1.6,1,4.1,1.7,7.7,2.1v2.4c-3.1-0.2-7.3-0.4-12.7-0.4
		c-4.3,0-7.8,0.1-10.3,0.4v-2.4c2.6-0.4,4.5-1.1,5.7-2c1.2-0.9,2-2.4,2.5-4.5c0.4-2,0.6-5.1,0.6-9.1v-53.1c0-3-0.2-5.2-0.6-6.5
		c-0.4-1.3-1.3-2.2-2.5-2.7c-1.2-0.5-3.1-0.8-5.7-0.9v-2.4c2.5,0.2,5.9,0.4,10.3,0.4c3.9,0,7.3-0.1,10.1-0.4l45.7,56.3v-36.9
		c0-4.6-0.2-8-0.7-10.2c-0.5-2.2-1.5-3.7-3.1-4.7c-1.6-1-4.1-1.7-7.7-2.1v-2.4c3.1,0.2,7.3,0.4,12.7,0.4c4.4,0,7.8-0.1,10.3-0.4
		V115.2z"/>
	<path class="st3" d="M436,192.2c1.3,1.2,2.6,1.8,3.9,1.9v2.4c-4.7-0.2-10.7-0.4-17.9-0.4c-8,0-14,0.1-17.9,0.4v-2.4
		c3-0.2,5.1-0.5,6.4-1.1c1.3-0.6,1.9-1.6,1.9-3.1c0-1.4-0.5-3.3-1.4-5.7l-7.1-19.4h-25.7l-3.1,8.1c-2.2,5.7-3.3,10-3.3,13.1
		c0,2.9,0.9,4.9,2.7,6.1c1.8,1.1,4.4,1.8,7.8,1.9v2.4c-5.4-0.2-10.2-0.4-14.6-0.4c-3.6,0-6.6,0.1-9,0.4v-2.4
		c3.9-0.7,7.2-4.8,10.1-12.4l26.9-69c0.9,0.1,2.2,0.1,4.1,0.1s3.2,0,4-0.1l28.7,73.9C433.5,189.1,434.7,191,436,192.2z M403,162.4
		l-11.7-31.9L379,162.4H403z"/>
	<path class="st3" d="M483.1,115.2c-2.8,0.2-4.9,0.5-6.2,0.9c-1.3,0.5-2.2,1.4-2.7,2.7c-0.5,1.3-0.7,3.5-0.7,6.5v59.9
		c0,2.5,0.2,4.3,0.6,5.5c0.4,1.1,1.1,1.9,2.1,2.3c1,0.4,2.6,0.6,4.8,0.6h5.8c5.3,0,10-2.4,13.9-7.2c3.9-4.8,6.4-11.2,7.6-19.1h2.7
		c-0.2,2.7-0.4,6.1-0.4,10.4c0,7.6,0.3,13.8,0.8,18.6c-5.4-0.2-14.4-0.4-27-0.4c-17.2,0-30,0.1-38.5,0.4v-2.4
		c2.6-0.2,4.5-0.5,5.7-0.9c1.2-0.5,2-1.4,2.5-2.7c0.4-1.3,0.6-3.5,0.6-6.5v-58.5c0-3-0.2-5.2-0.6-6.5c-0.4-1.3-1.3-2.2-2.5-2.7
		c-1.2-0.5-3.1-0.8-5.7-0.9v-2.4c4,0.2,10.2,0.4,18.6,0.4c8,0,14.2-0.1,18.5-0.4V115.2z"/>
	<path class="st3" d="M81.6,235.5c2.4,0.8,4.9,1.9,7.4,3.4c0.9,0.5,1.6,0.9,2.3,1.2c0.7,0.3,1.2,0.5,1.7,0.5c0.7,0,1.3-0.4,1.7-1.2
		c0.4-0.8,0.7-2.1,0.9-4h2.7c-0.4,5.3-0.6,14.2-0.6,26.9h-2.7c-0.3-4.2-1.3-8.3-2.9-12.2c-1.6-3.9-3.9-7-6.8-9.4
		c-2.9-2.4-6.4-3.6-10.3-3.6c-3.9,0-7,1.1-9.4,3.2c-2.4,2.2-3.6,5.1-3.6,8.8c0,2.8,0.6,5.2,1.8,7.2c1.2,2,2.8,3.9,5,5.6
		c2.1,1.7,5.4,4,9.8,6.9l3.8,2.6c4.6,3.1,8.3,5.7,11,8c2.7,2.3,4.9,4.9,6.5,8c1.7,3,2.5,6.5,2.5,10.6c0,5-1.3,9.3-3.9,12.7
		c-2.6,3.4-6.1,6-10.6,7.7c-4.4,1.7-9.4,2.6-14.8,2.6c-4.4,0-8.1-0.4-11-1.2c-2.9-0.8-5.6-1.8-8-3.2c-1.7-1.1-3.1-1.7-4-1.7
		c-0.7,0-1.3,0.4-1.7,1.2c-0.4,0.8-0.7,2.1-0.9,4h-2.7c0.3-5,0.5-15.6,0.5-31.9H48c0.5,8.8,2.5,16,5.9,21.4
		c3.4,5.5,8.6,8.2,15.6,8.2c4.2,0,7.7-1.1,10.5-3.4c2.8-2.3,4.1-5.5,4.1-9.8c0-4.4-1.4-8.2-4.2-11.3c-2.8-3.1-7.3-6.7-13.5-10.6
		c-4.7-3.1-8.5-5.7-11.3-8c-2.8-2.3-5.2-5-7-8.1c-1.8-3.1-2.7-6.7-2.7-10.8c0-4.7,1.2-8.7,3.6-12c2.4-3.3,5.6-5.7,9.6-7.3
		c4-1.6,8.4-2.4,13.2-2.4C75.9,234.3,79.2,234.7,81.6,235.5z"/>
	<path class="st3" d="M197.1,239.2c-1.2,0.5-2,1.4-2.4,2.7c-0.4,1.3-0.6,3.5-0.6,6.5v58.5c0,3,0.2,5.2,0.6,6.5
		c0.4,1.3,1.2,2.2,2.4,2.7c1.2,0.5,3.1,0.8,5.8,0.9v2.4c-3.9-0.2-9.8-0.4-17.9-0.4c-7.9,0-14.1,0.1-18.5,0.4v-2.4
		c2.6-0.2,4.5-0.5,5.7-0.9c1.2-0.5,2-1.4,2.5-2.7c0.4-1.3,0.6-3.5,0.6-6.5v-28.3H144v28.3c0,3,0.2,5.2,0.6,6.5
		c0.4,1.3,1.2,2.2,2.4,2.7c1.2,0.5,3.1,0.8,5.8,0.9v2.4c-4.2-0.2-10.2-0.4-17.8-0.4c-8.4,0-14.6,0.1-18.6,0.4v-2.4
		c2.6-0.2,4.5-0.5,5.7-0.9c1.2-0.5,2-1.4,2.5-2.7c0.4-1.3,0.6-3.5,0.6-6.5v-58.5c0-3-0.2-5.2-0.6-6.5c-0.4-1.3-1.3-2.2-2.5-2.7
		c-1.2-0.5-3.1-0.8-5.7-0.9v-2.4c4,0.2,10.2,0.4,18.6,0.4c7.6,0,13.6-0.1,17.8-0.4v2.4c-2.7,0.2-4.6,0.5-5.8,0.9
		c-1.2,0.5-2,1.4-2.4,2.7c-0.4,1.3-0.6,3.5-0.6,6.5v27.8h31.3v-27.8c0-3-0.2-5.2-0.6-6.5c-0.4-1.3-1.3-2.2-2.5-2.7
		c-1.2-0.5-3.1-0.8-5.7-0.9v-2.4c4.4,0.2,10.6,0.4,18.5,0.4c8.1,0,14.1-0.1,17.9-0.4v2.4C200.3,238.4,198.3,238.7,197.1,239.2z"/>
	<path class="st3" d="M287.7,315.2c1.3,1.2,2.6,1.8,3.9,1.9v2.4c-4.7-0.2-10.7-0.4-17.9-0.4c-8,0-14,0.1-17.9,0.4v-2.4
		c3-0.2,5.1-0.5,6.4-1.1c1.3-0.6,1.9-1.6,1.9-3.1c0-1.4-0.5-3.3-1.4-5.7l-7.1-19.4h-25.7l-3.1,8.1c-2.2,5.7-3.3,10-3.3,13.1
		c0,2.9,0.9,4.9,2.7,6.1c1.8,1.1,4.4,1.8,7.8,1.9v2.4c-5.3-0.2-10.2-0.4-14.6-0.4c-3.6,0-6.6,0.1-9,0.4v-2.4
		c3.9-0.7,7.2-4.8,10.1-12.4l26.9-69c0.9,0.1,2.2,0.1,4.1,0.1c1.9,0,3.2,0,4-0.1l28.7,73.9C285.1,312.1,286.3,314,287.7,315.2z
		 M254.6,285.4l-11.7-31.9l-12.3,31.9H254.6z"/>
	<path class="st3" d="M377.6,314.2c-2.1,2.4-4.4,4.2-6.8,5.3c-2.4,1.1-5.4,1.6-8.8,1.6c-4.6,0-8.2-1-10.8-2.9
		c-2.6-1.9-4.3-5.2-5.1-9.9l-2.1-11.8c-1-5.7-2.3-10-3.7-12.7c-1.5-2.7-3.9-4.1-7.3-4.1h-7.7v27.1c0,3,0.2,5.2,0.6,6.5
		c0.4,1.3,1.2,2.2,2.4,2.7c1.2,0.5,3.1,0.8,5.8,0.9v2.4c-4.2-0.2-10.2-0.4-17.8-0.4c-8.4,0-14.6,0.1-18.6,0.4v-2.4
		c2.6-0.2,4.5-0.5,5.7-0.9c1.2-0.5,2-1.4,2.5-2.7c0.4-1.3,0.6-3.5,0.6-6.5v-58.5c0-3-0.2-5.2-0.6-6.5c-0.4-1.3-1.3-2.2-2.5-2.7
		c-1.2-0.5-3.1-0.8-5.7-0.9v-2.4c4,0.2,10,0.4,17.9,0.4l13.1-0.1c1.6-0.1,3.4-0.1,5.4-0.1c10.9,0,19,1.8,24.5,5.3
		c5.5,3.5,8.2,8.6,8.2,15.2c0,5.6-2,10.5-6.1,14.8c-4.1,4.2-10.9,6.9-20.3,8c7.1,0.6,12.3,2.2,15.8,4.6c3.5,2.4,5.7,6.1,6.7,11
		l2.7,12.2c0.6,3.1,1.4,5.4,2.2,6.6c0.8,1.3,2,1.9,3.5,1.9c0.9-0.1,1.8-0.3,2.4-0.7c0.7-0.4,1.4-1.1,2.3-2L377.6,314.2z
		 M327.8,239.1c-1,0.6-1.7,1.5-2.1,3c-0.4,1.4-0.6,3.5-0.6,6.4v29h5.1c6.4,0,10.9-1.7,13.3-5.1c2.4-3.4,3.6-8.2,3.6-14.5
		c0-6.4-1.1-11.3-3.4-14.6c-2.3-3.3-6-5-11.2-5C330.4,238.2,328.8,238.5,327.8,239.1z"/>
	<path class="st3" d="M480.1,239.2c-1.2,0.5-2,1.4-2.4,2.7c-0.4,1.3-0.6,3.5-0.6,6.5v58.5c0,3,0.2,5.2,0.6,6.5
		c0.4,1.3,1.3,2.2,2.5,2.7c1.2,0.5,3.1,0.8,5.7,0.9v2.4c-4.3-0.2-10.5-0.4-18.5-0.4c-8.4,0-14.6,0.1-18.6,0.4v-2.4
		c2.8-0.2,4.9-0.5,6.2-0.9c1.3-0.5,2.2-1.4,2.7-2.7c0.5-1.3,0.7-3.5,0.7-6.5v-61.7l-28.4,74.3H428l-31.9-76v56.5
		c0,4.6,0.2,8,0.7,10.2c0.5,2.2,1.5,3.7,3.1,4.7c1.6,1,4.1,1.7,7.7,2.1v2.4c-3.1-0.2-7.3-0.4-12.7-0.4c-4.3,0-7.8,0.1-10.3,0.4v-2.4
		c2.6-0.4,4.5-1.1,5.7-2c1.2-0.9,2-2.4,2.5-4.5c0.4-2,0.6-5.1,0.6-9.1v-53.1c0-3-0.2-5.2-0.6-6.5c-0.4-1.3-1.3-2.2-2.5-2.7
		c-1.2-0.5-3.1-0.8-5.7-0.9v-2.4c2.5,0.2,5.9,0.4,10.3,0.4c7.2,0,13.5-0.1,18.6-0.4l23.8,57.5l21.7-57.1h8.4c8,0,14.2-0.1,18.5-0.4
		v2.4C483.2,238.4,481.3,238.7,480.1,239.2z"/>
	<path class="st3" d="M570.6,315.2c1.3,1.2,2.6,1.8,3.9,1.9v2.4c-4.7-0.2-10.7-0.4-17.9-0.4c-8,0-14,0.1-17.9,0.4v-2.4
		c3-0.2,5.1-0.5,6.4-1.1c1.3-0.6,1.9-1.6,1.9-3.1c0-1.4-0.5-3.3-1.4-5.7l-7.1-19.4h-25.7l-3.1,8.1c-2.2,5.7-3.3,10-3.3,13.1
		c0,2.9,0.9,4.9,2.7,6.1c1.8,1.1,4.4,1.8,7.8,1.9v2.4c-5.4-0.2-10.2-0.4-14.6-0.4c-3.6,0-6.6,0.1-9,0.4v-2.4
		c3.9-0.7,7.2-4.8,10.1-12.4l26.9-69c0.9,0.1,2.2,0.1,4.1,0.1s3.2,0,4-0.1l28.7,73.9C568.1,312.1,569.3,314,570.6,315.2z
		 M537.6,285.4l-11.7-31.9l-12.3,31.9H537.6z"/>
</g>
<g>
	<path class="st3" d="M196.4,364.1h5.8v7.2c-1.5,0.6-3.2,1-5.1,1c-2.5,0-4.4-0.7-5.7-2.1s-2-3.4-2-5.9c0-1.6,0.3-3,1-4.2
		s1.6-2.2,2.8-2.9c1.2-0.7,2.6-1,4.2-1c1.7,0,3.2,0.3,4.6,0.9l-0.4,1c-1.4-0.6-2.8-0.9-4.2-0.9c-2.1,0-3.7,0.6-4.9,1.9
		s-1.8,3-1.8,5.2c0,2.4,0.6,4.1,1.7,5.3c1.2,1.2,2.8,1.8,5.1,1.8c1.4,0,2.7-0.2,3.7-0.6v-5.5h-4.7V364.1z"/>
	<path class="st3" d="M209.8,365.2v6.8h-1.1v-15.7h3.7c1.9,0,3.4,0.4,4.3,1.1c0.9,0.7,1.4,1.8,1.4,3.2c0,1.1-0.3,1.9-0.8,2.7
		c-0.6,0.7-1.4,1.2-2.5,1.6l4.3,7.2h-1.3l-4-6.8H209.8z M209.8,364.3h3c1.3,0,2.4-0.3,3.1-0.9s1.1-1.5,1.1-2.6
		c0-1.2-0.4-2.1-1.1-2.6c-0.7-0.5-1.9-0.8-3.5-0.8h-2.6V364.3z"/>
	<path class="st3" d="M231.9,366.5h-6.4l-2.2,5.5h-1.2l6.3-15.8h0.7l6.2,15.8H234L231.9,366.5z M225.9,365.5h5.6l-2.1-5.7
		c-0.2-0.4-0.4-1.1-0.6-1.8c-0.2,0.7-0.4,1.3-0.6,1.9L225.9,365.5z"/>
	<path class="st3" d="M249.5,360.9c0,1.5-0.5,2.7-1.5,3.5c-1,0.8-2.5,1.2-4.4,1.2h-2.4v6.5H240v-15.7h3.8
		C247.6,356.4,249.5,357.9,249.5,360.9z M241.1,364.6h2.2c1.8,0,3-0.3,3.8-0.9s1.2-1.5,1.2-2.8c0-1.2-0.4-2.1-1.1-2.7
		s-1.9-0.9-3.5-0.9h-2.6V364.6z"/>
	<path class="st3" d="M266.8,372.1h-1.1v-7.7h-9.2v7.7h-1.1v-15.7h1.1v7h9.2v-7h1.1V372.1z"/>
	<path class="st3" d="M273.8,372.1v-15.7h1.1v15.7H273.8z"/>
	<path class="st3" d="M288.6,357.1c-2,0-3.5,0.6-4.7,1.9c-1.1,1.3-1.7,3-1.7,5.2c0,2.2,0.5,4,1.6,5.2c1.1,1.2,2.6,1.9,4.6,1.9
		c1.3,0,2.5-0.2,3.6-0.5v1c-1,0.4-2.3,0.5-3.9,0.5c-2.2,0-3.9-0.7-5.2-2.1c-1.3-1.4-1.9-3.4-1.9-6c0-1.6,0.3-3,0.9-4.2
		c0.6-1.2,1.5-2.2,2.6-2.8c1.1-0.7,2.5-1,4-1c1.5,0,2.9,0.3,4.1,0.9l-0.4,1C291,357.4,289.8,357.1,288.6,357.1z"/>
	<path class="st3" d="M318.2,364.1c0,2.6-0.7,4.6-2.1,6s-3.4,2-6.1,2h-3.8v-15.7h4.2c2.5,0,4.4,0.7,5.7,2
		C317.6,359.6,318.2,361.5,318.2,364.1z M317,364.1c0-2.2-0.6-3.9-1.7-5.1c-1.1-1.1-2.8-1.7-5-1.7h-2.9v13.8h2.6
		C314.7,371.1,317,368.8,317,364.1z"/>
	<path class="st3" d="M332.9,372.1h-8.6v-15.7h8.6v1h-7.5v5.9h7.1v1h-7.1v6.7h7.5V372.1z"/>
	<path class="st3" d="M347.7,368c0,1.3-0.5,2.3-1.4,3.1c-1,0.8-2.2,1.1-3.8,1.1c-1.9,0-3.4-0.2-4.4-0.6v-1.1
		c1.1,0.5,2.6,0.7,4.3,0.7c1.3,0,2.3-0.3,3.1-0.9c0.8-0.6,1.1-1.4,1.1-2.3c0-0.6-0.1-1.1-0.4-1.5s-0.7-0.7-1.2-1.1s-1.4-0.7-2.5-1
		c-1.6-0.6-2.7-1.1-3.3-1.8c-0.6-0.6-0.9-1.5-0.9-2.6c0-1.2,0.5-2.1,1.4-2.9c0.9-0.7,2.1-1.1,3.6-1.1c1.5,0,2.9,0.3,4.2,0.8
		l-0.4,0.9c-1.3-0.5-2.5-0.8-3.7-0.8c-1.2,0-2.1,0.3-2.8,0.8s-1,1.3-1,2.2c0,0.6,0.1,1.1,0.3,1.4c0.2,0.4,0.6,0.7,1,1
		s1.3,0.7,2.5,1.1c1.2,0.4,2.1,0.8,2.8,1.2s1.1,0.8,1.3,1.4C347.6,366.7,347.7,367.3,347.7,368z"/>
	<path class="st3" d="M353.5,372.1v-15.7h1.1v15.7H353.5z"/>
	<path class="st3" d="M367.8,364.1h5.8v7.2c-1.5,0.6-3.2,1-5.1,1c-2.5,0-4.4-0.7-5.7-2.1c-1.3-1.4-2-3.4-2-5.9c0-1.6,0.3-3,1-4.2
		c0.7-1.2,1.6-2.2,2.8-2.9c1.2-0.7,2.6-1,4.2-1c1.7,0,3.2,0.3,4.6,0.9l-0.4,1c-1.4-0.6-2.8-0.9-4.2-0.9c-2.1,0-3.7,0.6-4.9,1.9
		c-1.2,1.3-1.8,3-1.8,5.2c0,2.4,0.6,4.1,1.7,5.3s2.8,1.8,5.1,1.8c1.4,0,2.7-0.2,3.7-0.6v-5.5h-4.7V364.1z"/>
	<path class="st3" d="M391.5,372.1h-1.1l-9.3-13.9H381c0.1,1.7,0.1,2.9,0.1,3.8v10.2h-1.1v-15.7h1.1l9.3,13.9h0.1
		c-0.1-1.3-0.1-2.5-0.1-3.7v-10.2h1.1V372.1z"/>
	<path class="st3" d="M407,372.1h-8.6v-15.7h8.6v1h-7.5v5.9h7.1v1h-7.1v6.7h7.5V372.1z"/>
	<path class="st3" d="M414.2,365.2v6.8h-1.1v-15.7h3.7c1.9,0,3.4,0.4,4.3,1.1s1.4,1.8,1.4,3.2c0,1.1-0.3,1.9-0.8,2.7
		c-0.6,0.7-1.4,1.2-2.5,1.6l4.3,7.2h-1.3l-4-6.8H414.2z M414.2,364.3h3c1.3,0,2.4-0.3,3.1-0.9s1.1-1.5,1.1-2.6
		c0-1.2-0.4-2.1-1.1-2.6c-0.7-0.5-1.9-0.8-3.5-0.8h-2.6V364.3z"/>
</g>
<rect x="866" y="-125.6" class="st4" width="612" height="298"/>
<text transform="matrix(1 0 0 1 962.375 -33.2518)"><tspan x="0" y="0" class="st3" style="font-family:'PlayfairDisplay-Bold'; font-size:118px; letter-spacing:5;">SONAL </tspan><tspan x="-59.2" y="123" class="st3" style="font-family:'PlayfairDisplay-Bold'; font-size:118px; letter-spacing:5;">SHARMA</tspan></text>
<rect x="895" y="125.7" class="st4" width="554" height="208"/>
<text transform="matrix(1 0 0 1 1054.0303 142.4024)" class="st3" style="font-family:'OpenSans-Light'; font-size:22px; letter-spacing:2;">GRAPHIC DESIGNER</text>
</svg>
