<?xml version="1.0" encoding="utf-8"?>
<!-- Generator: Adobe Illustrator 18.0.0, SVG Export Plug-In . SVG Version: 6.00 Build 0)  -->
<!DOCTYPE svg PUBLIC "-//W3C//DTD SVG 1.1//EN" "http://www.w3.org/Graphics/SVG/1.1/DTD/svg11.dtd">
<svg version="1.1" id="Layer_1" xmlns="http://www.w3.org/2000/svg" xmlns:xlink="http://www.w3.org/1999/xlink" x="0px" y="0px"
	 viewBox="195 75 803 677.1" enable-background="new 195 75 803 677.1" xml:space="preserve">
<path fill="#EBE8DC" d="M251,467h-18c-6.6,0-12-5.4-12-12V330c0-6.6,5.4-12,12-12h18c6.6,0,12,5.4,12,12v125
	C263,461.6,257.6,467,251,467z"/>
<path fill="#EBE8DC" d="M756.3,636.5h-18c-6.6,0-12-5.4-12-12V190.2c0-6.6,5.4-12,12-12h18c6.6,0,12,5.4,12,12v434.3
	C768.3,631.1,762.9,636.5,756.3,636.5z"/>
<g>
	<polygon fill="#EBE8DC" points="293,446.6 698,592 698,346 293,392.5 	"/>
	<polygon fill="#EBE8DC" points="293,349.6 293,378 698,275 698,216 	"/>
</g>
<path fill="#EBE8DC" d="M940.3,265l-117.7,46.2c-6.1,2.4-13.1-0.6-15.6-6.8v0c-2.4-6.1,0.6-13.1,6.8-15.6l117.7-46.2
	c6.1-2.4,13.1,0.6,15.6,6.8v0C949.5,255.6,946.4,262.6,940.3,265z"/>
<path fill="#EBE8DC" d="M814.3,521.4L924.8,578c5.9,3,13.1,0.7,16.2-5.2l0,0c3-5.9,0.7-13.1-5.2-16.2L825.2,500
	c-5.9-3-13.1-0.7-16.2,5.2v0C806.1,511.1,808.4,518.4,814.3,521.4z"/>
<path fill="#EBE8DC" d="M948.2,425.8L823,425.4c-6.6,0-12-5.4-12-12v0c0-6.6,5.4-12,12-12l125.3,0.4c6.6,0,12,5.4,12,12v0
	C960.3,420.5,954.8,425.8,948.2,425.8z"/>
<path fill="#EBE8DC" d="M457.7,528.8c0,0-5.1-3.4-13.3,4.6l-8.2,14.1c0,0-7.2,9.9-21.6,7.4l-23.8-10.4l0,0l-1.2-0.4l-1.7-0.7l0,0.1
	l-24.2-9.4c-12-8.3-10.2-20.5-10.2-20.5l4.1-15.8c-0.1-11.5-6.2-12.7-6.2-12.7c-10.7-3.4-13.7,5.3-13.7,5.3c-3.2,7-4.7,17-4.9,18.8
	c0-0.4,0.1-1,0.2-1.9l-0.1,0.5c-0.1,0.9-0.2,1.9-0.4,3c-4.2,32.5,18,40.1,18,40.1l31.6,12.7l30,12.6c0,0,21,10.2,40.9-15.7l2.8-3.8
	c0.1-0.1,0.1-0.2,0.2-0.2c0.1-0.2,0.3-0.5,0.6-0.9c2.3-3.4,5.5-8.5,7.2-13.3C463.7,542.2,467.7,533.9,457.7,528.8z"/>
</svg>
