<?xml version="1.0" encoding="utf-8"?>
<!-- Generator: Adobe Illustrator 22.0.1, SVG Export Plug-In . SVG Version: 6.00 Build 0)  -->
<!DOCTYPE svg PUBLIC "-//W3C//DTD SVG 1.1//EN" "http://www.w3.org/Graphics/SVG/1.1/DTD/svg11.dtd">
<svg version="1.1" id="Layer_1" xmlns="http://www.w3.org/2000/svg" xmlns:xlink="http://www.w3.org/1999/xlink" x="0px" y="0px"
	 viewBox="0 0 814.5 823.5" style="enable-background:new 0 0 814.5 823.5;" xml:space="preserve">
<style type="text/css">
	.st0{fill:#FFFFFF;}
	.st1{fill:none;stroke:#FFFFFF;stroke-width:21;stroke-miterlimit:10;}
</style>
<path class="st0" d="M153.1,464.6h-13.7c-5,0-9.1-4.1-9.1-9.1v-95.3c0-5,4.1-9.1,9.1-9.1h13.7c5,0,9.1,4.1,9.1,9.1v95.3
	C162.2,460.5,158.1,464.6,153.1,464.6z"/>
<path class="st0" d="M538.2,593.8h-13.7c-5,0-9.1-4.1-9.1-9.1v-331c0-5,4.1-9.1,9.1-9.1h13.7c5,0,9.1,4.1,9.1,9.1v331
	C547.3,589.7,543.2,593.8,538.2,593.8z"/>
<g>
	<polygon class="st0" points="185.1,449.1 493.8,559.9 493.8,372.4 185.1,407.9 	"/>
	<polygon class="st0" points="185.1,375.2 185.1,396.8 493.8,318.3 493.8,273.3 	"/>
</g>
<path class="st0" d="M640.9,300.2l-89.7,35.2c-4.6,1.8-10-0.5-11.9-5.2l0,0c-1.8-4.6,0.5-10,5.2-11.9l89.7-35.2
	c4.6-1.8,10,0.5,11.9,5.2l0,0C647.9,293,645.6,298.4,640.9,300.2z"/>
<path class="st0" d="M544.9,495.6l84.2,43.1c4.5,2.3,10,0.5,12.3-4l0,0c2.3-4.5,0.5-10-4-12.3l-84.3-43.1c-4.5-2.3-10-0.5-12.3,4
	l0,0C538.6,487.7,540.4,493.3,544.9,495.6z"/>
<path class="st0" d="M646.9,422.7l-95.4-0.3c-5,0-9.1-4.1-9.1-9.1l0,0c0-5,4.1-9.1,9.1-9.1l95.5,0.3c5,0,9.1,4.1,9.1,9.1l0,0
	C656.2,418.7,652,422.7,646.9,422.7z"/>
<path class="st0" d="M310.6,511.7c0,0-3.9-2.6-10.1,3.5l-6.2,10.7c0,0-5.5,7.5-16.5,5.6l-18.1-7.9l0,0l-0.9-0.3l-1.3-0.5v0.1
	l-18.4-7.2c-9.1-6.3-7.8-15.6-7.8-15.6l3.1-12c-0.1-8.8-4.7-9.7-4.7-9.7c-8.2-2.6-10.4,4-10.4,4c-2.4,5.3-3.6,13-3.7,14.3
	c0-0.3,0.1-0.8,0.2-1.4l-0.1,0.4c-0.1,0.7-0.2,1.4-0.3,2.3c-3.2,24.8,13.7,30.6,13.7,30.6l24.1,9.7l22.9,9.6c0,0,16,7.8,31.2-12
	l2.1-2.9c0.1-0.1,0.1-0.2,0.2-0.2c0.1-0.2,0.2-0.4,0.5-0.7c1.8-2.6,4.2-6.5,5.5-10.1C315.2,521.9,318.2,515.6,310.6,511.7z"/>
<circle class="st1" cx="407.1" cy="413.9" r="363"/>
</svg>
