<?xml version="1.0" encoding="utf-8"?>
<!-- Generator: Adobe Illustrator 22.0.1, SVG Export Plug-In . SVG Version: 6.00 Build 0)  -->
<!DOCTYPE svg PUBLIC "-//W3C//DTD SVG 1.1//EN" "http://www.w3.org/Graphics/SVG/1.1/DTD/svg11.dtd">
<svg version="1.1" id="Layer_1" xmlns="http://www.w3.org/2000/svg" xmlns:xlink="http://www.w3.org/1999/xlink" x="0px" y="0px"
	 viewBox="0 0 816 805.5" style="enable-background:new 0 0 816 805.5;" xml:space="preserve">
<style type="text/css">
	.st0{fill:#FFFFFF;}
	.st1{fill:none;stroke:#FFFFFF;stroke-width:21;stroke-miterlimit:10;}
</style>
<path class="st0" d="M624.1,223.3c0,0-167.6-37.6-206.2,17.4c0,0-29.3-55.9-210.3-16.8c0,0-20.2,6-19.5,27.5v295.5
	c0,0,0.7,31.6,35.7,23.5c0,0,133.2-26.9,166.9,5.3c0,0,22.9,31.6,60.6,0c0,0,27.5-31.6,155.5-6.7c0,0,35.1,16.8,41.7-22.9V255.6
	C648.4,255.6,655.1,230.7,624.1,223.3z M406.7,556.8c-67.9-39-196.4-9.3-196.4-9.3v-300c19.4-7.7,107.6-15,107.6-15
	c83.7-3.6,88.8,37.6,88.8,37.6V556.8L406.7,556.8z M623.7,548.3c0,0-128.6-29.9-196.4,9.3V271c0,0,5.2-41.2,88.8-37.6
	c0,0,88.2,7,107.6,15V548.3L623.7,548.3z"/>
<path class="st0" d="M237.7,289.2c0,0,97.7-24.3,145.4,3.4v14.2c0,0-51.8-23.5-145.4,0L237.7,289.2L237.7,289.2z"/>
<path class="st0" d="M237.7,351.2c0,0,88.8-23.5,145.4,2.8v16.1c0,0-63.9-25-145.4,0L237.7,351.2L237.7,351.2z"/>
<path class="st0" d="M237.7,412.1c0,0,75.4-20.2,145.4,0V427c0,0-49.1-16.8-145.4,0L237.7,412.1L237.7,412.1z"/>
<path class="st0" d="M237.7,471.6c0,0,90.8-18.1,145.4,0V489c0,0-48.4-20.9-145.4,0L237.7,471.6L237.7,471.6z"/>
<path class="st0" d="M617.4,296.5c0,0-110.4-27.4-164.4,3.8v16c0,0,58.5-26.6,164.4,0V296.5L617.4,296.5z"/>
<path class="st0" d="M597.9,351.1c0,0-88.8-23.5-145.4,2.8V370c0,0,63.9-25,145.4,0V351.1L597.9,351.1z"/>
<path class="st0" d="M597.9,412c0,0-75.4-20.2-145.4,0v14.9c0,0,49.1-16.8,145.4,0V412L597.9,412z"/>
<path class="st0" d="M597.9,471.5c0,0-90.8-18.1-145.4,0V489c0,0,48.4-20.9,145.4,0V471.5L597.9,471.5z"/>
<circle class="st1" cx="413.7" cy="401.8" r="363"/>
</svg>
