<?xml version="1.0" encoding="utf-8"?>
<!-- Generator: Adobe Illustrator 18.0.0, SVG Export Plug-In . SVG Version: 6.00 Build 0)  -->
<!DOCTYPE svg PUBLIC "-//W3C//DTD SVG 1.1//EN" "http://www.w3.org/Graphics/SVG/1.1/DTD/svg11.dtd">
<svg version="1.1" id="Layer_1" xmlns="http://www.w3.org/2000/svg" xmlns:xlink="http://www.w3.org/1999/xlink" x="0px" y="0px"
	 viewBox="180.6 299.1 634.5 543" enable-background="new 180.6 299.1 634.5 543" xml:space="preserve">
<path fill="none" stroke="#EBE8DC" stroke-width="27" stroke-miterlimit="10" d="M736,700.4H255.8c-6.2,0-11.4-5.1-11.4-11.4V414.9
	c0-6.2,5.1-11.4,11.4-11.4H736c6.2,0,11.4,5.1,11.4,11.4v274.2C747.4,695.3,742.3,700.4,736,700.4z"/>
<rect x="460" y="700.4" fill="#EBE8DC" width="75.6" height="57.7"/>
<path fill="#EBE8DC" d="M610.7,798H381.2c-6.2,0-11.4-5.1-11.4-11.4v-27.2c0-6.2,5.1-11.4,11.4-11.4h229.6c6.2,0,11.4,5.1,11.4,11.4
	v27.2C622,792.9,617,798,610.7,798z"/>
</svg>
