<?xml version="1.0" encoding="utf-8"?>
<!-- Generator: Adobe Illustrator 22.0.1, SVG Export Plug-In . SVG Version: 6.00 Build 0)  -->
<!DOCTYPE svg PUBLIC "-//W3C//DTD SVG 1.1//EN" "http://www.w3.org/Graphics/SVG/1.1/DTD/svg11.dtd">
<svg version="1.1" id="Layer_1" xmlns="http://www.w3.org/2000/svg" xmlns:xlink="http://www.w3.org/1999/xlink" x="0px" y="0px"
	 viewBox="0 0 830 822" style="enable-background:new 0 0 830 822;" xml:space="preserve">
<style type="text/css">
	.st0{fill:none;stroke:#FFFFFF;stroke-width:27;stroke-miterlimit:10;}
	.st1{fill:#FFFFFF;}
	.st2{fill:none;stroke:#FFFFFF;stroke-width:21;stroke-miterlimit:10;}
</style>
<path class="st0" d="M622.3,521H201.7c-5.4,0-10-4.5-10-10V271c0-5.4,4.5-10,10-10h420.6c5.4,0,10,4.5,10,10v240.1
	C632.3,516.5,627.8,521,622.3,521z"/>
<rect x="380.6" y="521" class="st1" width="66.2" height="50.5"/>
<path class="st1" d="M512.5,606.5h-201c-5.4,0-10-4.5-10-10v-23.8c0-5.4,4.5-10,10-10h201.1c5.4,0,10,4.5,10,10v23.8
	C522.4,602,518.1,606.5,512.5,606.5z"/>
<circle class="st2" cx="414.6" cy="409" r="363"/>
</svg>
