<?xml version="1.0" encoding="utf-8"?>
<!-- Generator: Adobe Illustrator 18.0.0, SVG Export Plug-In . SVG Version: 6.00 Build 0)  -->
<!DOCTYPE svg PUBLIC "-//W3C//DTD SVG 1.1//EN" "http://www.w3.org/Graphics/SVG/1.1/DTD/svg11.dtd">
<svg version="1.1" id="Layer_1" xmlns="http://www.w3.org/2000/svg" xmlns:xlink="http://www.w3.org/1999/xlink" x="0px" y="0px"
	 viewBox="195 75 640.9 640.8" enable-background="new 195 75 640.9 640.8" xml:space="preserve">
<circle fill="none" stroke="#EBE8DC" stroke-width="21" stroke-miterlimit="10" cx="513.3" cy="394" r="286.2"/>
<path fill="none" stroke="#EBE8DC" stroke-width="21" stroke-miterlimit="10" d="M689.7,486H337.6c-6.6,0-12-5.4-12-12V275.9
	c0-6.6,5.4-12,12-12h352.1c6.6,0,12,5.4,12,12V474C701.7,480.6,696.3,486,689.7,486z"/>
<rect x="486.8" y="486" fill="#EBE8DC" width="56.5" height="43.2"/>
<path fill="#EBE8DC" d="M596,559H431.3c-6.6,0-12-5.4-12-12v-13.3c0-6.6,5.4-12,12-12H596c6.6,0,12,5.4,12,12V547
	C608,553.6,602.6,559,596,559z"/>
</svg>
